<svg id="Groupe_299" data-name="Groupe 299" xmlns="http://www.w3.org/2000/svg" xmlns:xlink="http://www.w3.org/1999/xlink" width="256.999" height="41.353" viewBox="0 0 256.999 41.353">
  <defs>
    <clipPath id="clip-path">
      <rect id="Rectangle_84" data-name="Rectangle 84" width="256.999" height="41.353" fill="#4a4a4a"/>
    </clipPath>
  </defs>
  <path id="Tracé_386" data-name="Tracé 386" d="M84.536,87.753,98.565,80.86,84.536,73.968Z" transform="translate(-65.831 -57.887)" fill="#4a4a4a"/>
  <g id="Groupe_298" data-name="Groupe 298">
    <g id="Groupe_297" data-name="Groupe 297" clip-path="url(#clip-path)">
      <path id="Tracé_387" data-name="Tracé 387" d="M23.382,0H18.705A18.544,18.544,0,0,0,0,18.379V36.758a4.636,4.636,0,0,0,4.676,4.595,4.636,4.636,0,0,0,4.676-4.595V27.569h4.676v-9.19H9.353a9.272,9.272,0,0,1,9.353-9.19h4.676v4.595l9.353,4.595V9.19A9.272,9.272,0,0,0,23.382,0" fill="#4a4a4a"/>
      <path id="Tracé_388" data-name="Tracé 388" d="M105.67,135.993a4.677,4.677,0,0,0,9.353,0V126.8L105.67,131.4Z" transform="translate(-82.288 -99.234)" fill="#4a4a4a"/>
      <path id="Tracé_389" data-name="Tracé 389" d="M205.885,42.09c1.507,0,2.422.464,3.4,2.206l9.778,17.445c.207.377.118.668-.354.668h-3.752c-.384,0-.532-.087-.68-.377l-2.1-3.744H198.293l-2.038,3.744a.634.634,0,0,1-.679.377h-3.841c-.5,0-.591-.29-.384-.668L201.04,44.3c.975-1.741,1.861-2.206,3.1-2.206Zm-5.731,12.83h10.162l-4.7-8.5a.346.346,0,0,0-.325-.2h-.177a.346.346,0,0,0-.325.2Z" transform="translate(-148.93 -32.939)" fill="#4a4a4a"/>
      <path id="Tracé_390" data-name="Tracé 390" d="M339.281,42.09c6,0,8.271,2.09,8.271,7.663v4.5c0,4.731-1.654,6.966-5.819,7.518l3.4,4.615a.444.444,0,0,1-.384.726h-3.781c-.5,0-.65-.116-.827-.349l-3.4-4.847h-6.588c-5.967,0-8.272-2.09-8.272-7.663v-4.5c0-5.573,2.3-7.663,8.272-7.663ZM326.4,53.933c0,3.048.886,3.947,3.929,3.947H339.1c3.042,0,3.929-.9,3.929-3.947V50.072c0-3.048-.886-3.948-3.929-3.948H330.33c-3.043,0-3.929.9-3.929,3.948Z" transform="translate(-250.659 -32.939)" fill="#4a4a4a"/>
      <path id="Tracé_391" data-name="Tracé 391" d="M458.049,42.089c.443,0,.65.2.65.639V54.309c0,3.077.886,3.976,3.929,3.976h8.183c3.043,0,3.9-.9,3.9-3.976V42.728c0-.435.207-.639.65-.639h3.22c.443,0,.65.2.65.639V54.745c0,5.573-2.275,7.663-8.271,7.663h-8.508c-5.967,0-8.272-2.09-8.272-7.663V42.728c0-.435.237-.639.68-.639Z" transform="translate(-353.683 -32.938)" fill="#4a4a4a"/>
      <path id="Tracé_392" data-name="Tracé 392" d="M587.3,42.09c1.507,0,2.423.464,3.4,2.206l9.778,17.445c.207.377.118.668-.354.668h-3.752c-.384,0-.532-.087-.68-.377l-2.1-3.744H579.705l-2.039,3.744a.634.634,0,0,1-.679.377h-3.841c-.5,0-.591-.29-.384-.668L582.452,44.3c.975-1.741,1.861-2.206,3.1-2.206Zm-5.731,12.83h10.162l-4.7-8.5a.346.346,0,0,0-.325-.2h-.177a.345.345,0,0,0-.325.2Z" transform="translate(-445.947 -32.939)" fill="#4a4a4a"/>
      <path id="Tracé_393" data-name="Tracé 393" d="M729.9,42.089c.443,0,.68.2.68.639v2.757c0,.435-.237.639-.68.639H717.081c-3.042,0-3.929.9-3.929,3.948v.58h16.6c.443,0,.65.2.65.639v2.293c0,.435-.207.639-.65.639h-16.6v7.547c0,.435-.207.639-.65.639h-3.19c-.443,0-.68-.2-.68-.639V49.752c0-5.573,2.3-7.663,8.271-7.663Z" transform="translate(-551.833 -32.938)" fill="#4a4a4a"/>
      <path id="Tracé_394" data-name="Tracé 394" d="M819.99,42.09c1.507,0,2.422.464,3.4,2.206l9.778,17.445c.207.377.118.668-.354.668h-3.752c-.384,0-.532-.087-.68-.377l-2.1-3.744H812.4l-2.038,3.744a.634.634,0,0,1-.679.377H805.84c-.5,0-.591-.29-.384-.668L815.145,44.3c.975-1.741,1.861-2.206,3.1-2.206Zm-5.731,12.83h10.162l-4.7-8.5a.346.346,0,0,0-.325-.2h-.177a.346.346,0,0,0-.325.2Z" transform="translate(-627.152 -32.939)" fill="#4a4a4a"/>
      <path id="Tracé_395" data-name="Tracé 395" d="M961.675,42.089c.443,0,.65.2.65.639v2.757c0,.435-.207.639-.65.639h-14.8c-1.122,0-1.566.61-1.566,1.626v.987c0,1.074.5,1.626,1.536,1.626h11.078c3.4,0,5.169,1.8,5.169,4.992v2.322c0,2.816-1.654,4.731-5.229,4.731H941.5c-.443,0-.679-.2-.679-.639V59.011c0-.435.236-.639.679-.639h15.509c1.123,0,1.566-.61,1.566-1.626v-1.19c0-1.074-.5-1.625-1.536-1.625H945.959c-3.4,0-5.17-1.8-5.17-4.992V46.82c0-2.816,1.654-4.731,5.229-4.731Z" transform="translate(-732.621 -32.938)" fill="#4a4a4a"/>
      <path id="Tracé_396" data-name="Tracé 396" d="M1074.814,42.089c.443,0,.679.2.679.639v2.844a.6.6,0,0,1-.679.668h-9.276V61.769c0,.435-.207.639-.65.639h-3.22c-.443,0-.65-.2-.65-.639V46.24h-9.276a.6.6,0,0,1-.679-.668V42.728c0-.435.236-.639.679-.639Z" transform="translate(-818.495 -32.938)" fill="#4a4a4a"/>
    </g>
  </g>
</svg>
