<svg id="Groupe_304" data-name="Groupe 304" xmlns="http://www.w3.org/2000/svg" xmlns:xlink="http://www.w3.org/1999/xlink" width="217.758" height="46.883" viewBox="0 0 217.758 46.883">
  <defs>
    <clipPath id="clip-path">
      <rect id="Rectangle_88" data-name="Rectangle 88" width="217.758" height="46.883" fill="#4a4a4a"/>
    </clipPath>
  </defs>
  <g id="Groupe_303" data-name="Groupe 303" clip-path="url(#clip-path)">
    <path id="Tracé_412" data-name="Tracé 412" d="M.959,0S-4.912,21.227,12.4,27.665c4.613,1.985,15.321,5.683,8.844,19.218.1-.122,19.626-16.405,10.6-26.132C27.674,16.892,1.489,1.589.96,0" transform="translate(0)" fill="#4a4a4a"/>
    <path id="Tracé_413" data-name="Tracé 413" d="M406.128,203.215a11.477,11.477,0,0,0-4.946-7.015s5.031-2.85,13.588,2.529" transform="translate(-370.968 -180.983)" fill="#4a4a4a"/>
    <path id="Tracé_414" data-name="Tracé 414" d="M722.852,94.371a.477.477,0,0,1,.547.538v2.4a.491.491,0,0,1-.547.562H711.779a6.766,6.766,0,0,0-1.6.159,2.1,2.1,0,0,0-1.01.538,2.176,2.176,0,0,0-.535,1.015,6.685,6.685,0,0,0-.162,1.614v3.474a6.847,6.847,0,0,0,.162,1.626,2.179,2.179,0,0,0,.535,1.026,2.088,2.088,0,0,0,1.01.538,6.747,6.747,0,0,0,1.6.159h11.073a.477.477,0,0,1,.547.538v2.4a.477.477,0,0,1-.411.538.5.5,0,0,1-.136,0H711.63a12.936,12.936,0,0,1-3.21-.342,4.931,4.931,0,0,1-2.153-1.113,4.479,4.479,0,0,1-1.219-2.005,10.117,10.117,0,0,1-.386-3v-4.205a9.988,9.988,0,0,1,.386-2.983,4.481,4.481,0,0,1,1.219-1.993,5.036,5.036,0,0,1,2.153-1.125,12.536,12.536,0,0,1,3.21-.355Z" transform="translate(-651.591 -87.383)" fill="#4a4a4a"/>
    <path id="Tracé_415" data-name="Tracé 415" d="M1000.788,94.372a12.675,12.675,0,0,1,3.223.355,5.042,5.042,0,0,1,2.165,1.124,4.4,4.4,0,0,1,1.207,1.993,10.316,10.316,0,0,1,.373,2.983v4.2a10.447,10.447,0,0,1-.373,3,4.391,4.391,0,0,1-1.207,2.005,4.939,4.939,0,0,1-2.165,1.113,13.091,13.091,0,0,1-3.223.342H993.1a12.94,12.94,0,0,1-3.21-.342,4.931,4.931,0,0,1-2.153-1.113,4.48,4.48,0,0,1-1.219-2.005,10.121,10.121,0,0,1-.385-3v-4.205a10.01,10.01,0,0,1,.385-2.983,4.487,4.487,0,0,1,1.219-1.993,5.034,5.034,0,0,1,2.153-1.124,12.523,12.523,0,0,1,3.21-.355Zm-10.849,10.391a6.722,6.722,0,0,0,.162,1.6,2.178,2.178,0,0,0,.535,1.027,2.09,2.09,0,0,0,1.01.538,6.751,6.751,0,0,0,1.6.159h7.39a6.746,6.746,0,0,0,1.6-.159,2.088,2.088,0,0,0,1.01-.538,2.185,2.185,0,0,0,.535-1.027,6.754,6.754,0,0,0,.162-1.6V101.1a6.755,6.755,0,0,0-.162-1.6,2.187,2.187,0,0,0-.535-1.026,2.094,2.094,0,0,0-1.01-.538,6.774,6.774,0,0,0-1.6-.159h-7.39a6.779,6.779,0,0,0-1.6.159,2.1,2.1,0,0,0-1.01.538,2.181,2.181,0,0,0-.535,1.026,6.717,6.717,0,0,0-.162,1.6Z" transform="translate(-911.862 -87.384)" fill="#4a4a4a"/>
    <path id="Tracé_416" data-name="Tracé 416" d="M1316.793,94.371a.483.483,0,0,1,.547.4.461.461,0,0,1,0,.133v9.755a6.847,6.847,0,0,0,.162,1.626,2.179,2.179,0,0,0,.535,1.026,2.088,2.088,0,0,0,1.01.538,6.745,6.745,0,0,0,1.6.159h10.078a.477.477,0,0,1,.548.538v2.4a.477.477,0,0,1-.411.538.492.492,0,0,1-.137,0H1320.5a12.93,12.93,0,0,1-3.21-.342,4.925,4.925,0,0,1-2.152-1.113,4.48,4.48,0,0,1-1.22-2.005,10.127,10.127,0,0,1-.386-3V94.909q0-.538.572-.538Z" transform="translate(-1214.605 -87.383)" fill="#4a4a4a"/>
    <path id="Tracé_417" data-name="Tracé 417" d="M1582.139,94.371a.483.483,0,0,1,.547.4.47.47,0,0,1,0,.133v16.039a.477.477,0,0,1-.411.538.492.492,0,0,1-.136,0h-2.687q-.572,0-.572-.538V94.909q0-.538.572-.538Z" transform="translate(-1459.969 -87.383)" fill="#4a4a4a"/>
    <path id="Tracé_418" data-name="Tracé 418" d="M1688.363,94.318a5.311,5.311,0,0,1,3.645,1,3.937,3.937,0,0,1,1.083,3.032v1.174a3.481,3.481,0,0,1-1.593,3.105,3.355,3.355,0,0,1,1.716,3.154V107.2a6.4,6.4,0,0,1-.224,1.76,3.083,3.083,0,0,1-2.09,2.175,6.438,6.438,0,0,1-2.09.294H1674.03a.658.658,0,0,1-.747-.55.641.641,0,0,1,0-.183V95.049a.651.651,0,0,1,.56-.734.673.673,0,0,1,.187,0Zm-11.272,7.114h10.2a2.8,2.8,0,0,0,1.692-.367,1.313,1.313,0,0,0,.448-1.075v-.827A1.351,1.351,0,0,0,1689,98.05a2.229,2.229,0,0,0-1.406-.355h-10.177a.286.286,0,0,0-.323.239.28.28,0,0,0,0,.078Zm0,2.665v3.639a.282.282,0,0,0,.244.318.294.294,0,0,0,.08,0h10.2a2.218,2.218,0,0,0,1.418-.355,1.4,1.4,0,0,0,.421-1.136v-.926a1.425,1.425,0,0,0-.46-1.149,2.723,2.723,0,0,0-1.7-.391Z" transform="translate(-1547.258 -87.33)" fill="#4a4a4a"/>
    <path id="Tracé_419" data-name="Tracé 419" d="M1990.975,94.317a5.573,5.573,0,0,1,4.106,1.271,5.175,5.175,0,0,1,1.244,3.765v1.394a5.631,5.631,0,0,1-.87,3.325,4.177,4.177,0,0,1-2.837,1.565l4.255,5.184a.38.38,0,0,1,.075.366q-.05.248-.4.248h-3.21a.954.954,0,0,1-.448-.074.861.861,0,0,1-.252-.248l-3.932-5.085h-8.037v4.865a.477.477,0,0,1-.411.538.491.491,0,0,1-.136,0h-2.687q-.573,0-.573-.538V95.049a.65.65,0,0,1,.56-.734.669.669,0,0,1,.187,0Zm-10.3,8.728h9.53a2.439,2.439,0,0,0,1.792-.538,2.269,2.269,0,0,0,.523-1.638V99.846a2.269,2.269,0,0,0-.523-1.638,2.441,2.441,0,0,0-1.792-.538H1981q-.324,0-.323.294Z" transform="translate(-1827.974 -87.33)" fill="#4a4a4a"/>
    <path id="Tracé_420" data-name="Tracé 420" d="M2243.222,94.388a.678.678,0,0,1,.6.294l6.644,8.826,6.693-8.826a.677.677,0,0,1,.6-.294h3.26a.275.275,0,0,1,.273.159.309.309,0,0,1-.05.331l-8.933,11.393v4.694a.477.477,0,0,1-.411.538.5.5,0,0,1-.135,0h-2.688q-.572,0-.572-.538v-4.694l-8.831-11.394a.331.331,0,0,1-.062-.331.271.271,0,0,1,.286-.159Z" transform="translate(-2070.914 -87.4)" fill="#4a4a4a"/>
    <path id="Tracé_421" data-name="Tracé 421" d="M2555.242,77.85a.483.483,0,0,1,.547.4.49.49,0,0,1,0,.134v2.075a4.882,4.882,0,0,1-.026.538,3.426,3.426,0,0,1-.149.611l-.921,3.325a.894.894,0,0,1-.237.428.7.7,0,0,1-.435.11h-.995q-.6,0-.473-.538l.674-3.64h-.421q-.573,0-.573-.538V78.389q0-.538.573-.538Z" transform="translate(-2360.019 -72.085)" fill="#4a4a4a"/>
    <path id="Tracé_422" data-name="Tracé 422" d="M2655.24,94.234a.483.483,0,0,1,.548.4.468.468,0,0,1,0,.134v2.323a.477.477,0,0,1-.411.538.491.491,0,0,1-.137,0h-12.467a1.249,1.249,0,0,0-1.021.367,1.544,1.544,0,0,0-.3,1v.831q0,1.37,1.294,1.369h9.331a4.445,4.445,0,0,1,3.26,1.088,4.2,4.2,0,0,1,1.094,3.118v1.955a3.962,3.962,0,0,1-1.07,2.885,4.472,4.472,0,0,1-3.333,1.1h-13.784q-.572,0-.572-.538v-2.323q0-.538.572-.538h13.064a1.248,1.248,0,0,0,1.021-.366,1.543,1.543,0,0,0,.3-1v-1q0-1.369-1.294-1.369H2642a4.443,4.443,0,0,1-3.259-1.088,4.2,4.2,0,0,1-1.094-3.118V98.219a3.962,3.962,0,0,1,1.07-2.885,4.47,4.47,0,0,1,3.334-1.1Z" transform="translate(-2438.991 -87.246)" fill="#4a4a4a"/>
    <path id="Tracé_423" data-name="Tracé 423" d="M515.972,446.707a4.447,4.447,0,0,1-1.327.192,4.7,4.7,0,0,1-2.387-.6,4.238,4.238,0,0,1-1.611-1.614,4.462,4.462,0,0,1-.575-2.233,4.608,4.608,0,0,1,.593-2.321,4.447,4.447,0,0,1,3.929-2.247,4.7,4.7,0,0,1,2.451.67l-.265.559a4.133,4.133,0,0,0-2.173-.646,3.772,3.772,0,0,0-1.945.528,3.961,3.961,0,0,0-1.946,3.432,4.042,4.042,0,0,0,.481,1.955,3.594,3.594,0,0,0,1.364,1.406,3.952,3.952,0,0,0,2.046.522,4.085,4.085,0,0,0,2.189-.633l.29.534a5.022,5.022,0,0,1-1.112.49" transform="translate(-471.657 -405.484)" fill="#4a4a4a"/>
    <path id="Tracé_424" data-name="Tracé 424" d="M626.636,440.1a4.647,4.647,0,0,1,1.668-1.654,4.442,4.442,0,0,1,2.286-.614,4.51,4.51,0,0,1,2.3.614,4.617,4.617,0,0,1,1.684,1.654,4.408,4.408,0,0,1,0,4.505,4.7,4.7,0,0,1-6.278,1.654,4.4,4.4,0,0,1-2.275-3.911,4.316,4.316,0,0,1,.619-2.252m.544,4.214a3.974,3.974,0,0,0,1.431,1.421,3.813,3.813,0,0,0,1.971.528,3.95,3.95,0,0,0,3.979-3.92,3.863,3.863,0,0,0-.537-1.958,4.035,4.035,0,0,0-1.446-1.433,3.947,3.947,0,0,0-5.41,1.452,3.883,3.883,0,0,0-.518,1.961,3.746,3.746,0,0,0,.53,1.949" transform="translate(-578.872 -405.435)" fill="#4a4a4a"/>
    <path id="Tracé_425" data-name="Tracé 425" d="M786.722,436.551v9.011h-.606v-7.237l-3.689,5.1H782.4l-3.664-5.04v7.175h-.606v-9.011h.013l4.27,5.97,4.293-5.97Z" transform="translate(-719.529 -404.246)" fill="#4a4a4a"/>
    <path id="Tracé_426" data-name="Tracé 426" d="M938.7,436.551v9.011h-.606v-7.237l-3.689,5.1h-.025l-3.664-5.04v7.175h-.606v-9.011h.013l4.27,5.97,4.293-5.97Z" transform="translate(-860.058 -404.246)" fill="#4a4a4a"/>
    <path id="Tracé_427" data-name="Tracé 427" d="M1082.34,446.357a2.169,2.169,0,0,0,.878.869,2.828,2.828,0,0,0,2.552,0,2.212,2.212,0,0,0,.884-.869,2.622,2.622,0,0,0,.323-1.323V439.2h.606v5.873a3.136,3.136,0,0,1-.4,1.626,2.731,2.731,0,0,1-1.105,1.049,3.592,3.592,0,0,1-3.159,0,2.727,2.727,0,0,1-1.105-1.049,3.133,3.133,0,0,1-.4-1.626V439.2h.619v5.834a2.662,2.662,0,0,0,.316,1.323" transform="translate(-999.961 -406.699)" fill="#4a4a4a"/>
    <path id="Tracé_428" data-name="Tracé 428" d="M1208.2,436.893v9.02h-.025l-6.911-7.646.013,7.435h-.606v-9h.038l6.911,7.708-.013-7.522Z" transform="translate(-1110.241 -404.391)" fill="#4a4a4a"/>
    <rect id="Rectangle_86" data-name="Rectangle 86" width="0.619" height="8.813" transform="translate(100.809 32.502)" fill="#4a4a4a"/>
    <path id="Tracé_429" data-name="Tracé 429" d="M1383.015,446.707a4.448,4.448,0,0,1-1.327.192,4.7,4.7,0,0,1-2.387-.6,4.241,4.241,0,0,1-1.611-1.614,4.461,4.461,0,0,1-.575-2.233,4.606,4.606,0,0,1,.594-2.321,4.446,4.446,0,0,1,3.929-2.247,4.7,4.7,0,0,1,2.451.67l-.265.559a4.134,4.134,0,0,0-2.173-.646,3.772,3.772,0,0,0-1.945.528,3.958,3.958,0,0,0-1.945,3.432,4.043,4.043,0,0,0,.48,1.955,3.6,3.6,0,0,0,1.365,1.406,3.952,3.952,0,0,0,2.047.522,4.087,4.087,0,0,0,2.189-.633l.29.534a5.006,5.006,0,0,1-1.112.49" transform="translate(-1273.4 -405.484)" fill="#4a4a4a"/>
    <path id="Tracé_430" data-name="Tracé 430" d="M1495.912,440.306h-3.957l-1.188,2.917h-.619l3.788-9.2h.05l3.788,9.2h-.7Zm-.227-.571-1.731-4.332-1.768,4.332Z" transform="translate(-1377.922 -401.907)" fill="#4a4a4a"/>
    <path id="Tracé_431" data-name="Tracé 431" d="M1606.4,439.222v.583h-2.644v8.229h-.619v-8.229h-2.615v-.583Z" transform="translate(-1479.98 -406.72)" fill="#4a4a4a"/>
    <rect id="Rectangle_87" data-name="Rectangle 87" width="0.619" height="8.813" transform="translate(128.552 32.502)" fill="#4a4a4a"/>
    <path id="Tracé_432" data-name="Tracé 432" d="M1746.13,440.1a4.642,4.642,0,0,1,1.668-1.654,4.441,4.441,0,0,1,2.286-.614,4.511,4.511,0,0,1,2.3.614,4.615,4.615,0,0,1,1.684,1.654,4.409,4.409,0,0,1,0,4.505,4.7,4.7,0,0,1-6.279,1.654,4.405,4.405,0,0,1-2.274-3.911,4.311,4.311,0,0,1,.619-2.252m.543,4.214a3.973,3.973,0,0,0,1.431,1.421,3.812,3.812,0,0,0,1.971.528,3.951,3.951,0,0,0,3.979-3.921,3.864,3.864,0,0,0-.536-1.956,4.038,4.038,0,0,0-1.446-1.433,3.947,3.947,0,0,0-5.41,1.452,3.882,3.882,0,0,0-.518,1.961,3.745,3.745,0,0,0,.53,1.949" transform="translate(-1614.054 -405.435)" fill="#4a4a4a"/>
    <path id="Tracé_433" data-name="Tracé 433" d="M1905.156,436.893v9.02h-.025l-6.911-7.646.013,7.435h-.606v-9h.038l6.91,7.708-.012-7.522Z" transform="translate(-1754.712 -404.391)" fill="#4a4a4a"/>
    <path id="Tracé_434" data-name="Tracé 434" d="M2085.29,439.854l1.276,1.626h-.719L2085,440.4a2.756,2.756,0,0,1-1.08.857,3.572,3.572,0,0,1-1.535.323,3.323,3.323,0,0,1-1.5-.331,2.612,2.612,0,0,1-1.042-.9,2.237,2.237,0,0,1-.379-1.266,2.144,2.144,0,0,1,.346-1.185,2.861,2.861,0,0,1,.926-.893,3.423,3.423,0,0,1,1.257-.466l-.808-1.031a4.365,4.365,0,0,1-.36-.689,2.013,2.013,0,0,1,.132-1.719,1.869,1.869,0,0,1,.739-.7,2.247,2.247,0,0,1,1.08-.255,2.784,2.784,0,0,1,1.049.2,3.549,3.549,0,0,1,.884.509l-.3.409a2.715,2.715,0,0,0-1.542-.6,1.562,1.562,0,0,0-1.105.4,1.333,1.333,0,0,0-.436,1.024,1.646,1.646,0,0,0,.138.683,2.953,2.953,0,0,0,.252.472l3.2,4.108L2086,436.5h.606Zm-1.529.875a2.252,2.252,0,0,0,.9-.776L2082.345,437a2.462,2.462,0,0,0-1.054.3,2.387,2.387,0,0,0-.842.739,1.76,1.76,0,0,0-.328,1.036,1.714,1.714,0,0,0,.316,1.018,2.1,2.1,0,0,0,.847.695,2.7,2.7,0,0,0,1.161.248,2.843,2.843,0,0,0,1.315-.3" transform="translate(-1922.857 -400.164)" fill="#4a4a4a"/>
    <path id="Tracé_435" data-name="Tracé 435" d="M2263.309,439.222v.583h-4.914v3.5h4.422v.583h-4.422v3.563h5.091v.583h-5.71v-8.812Z" transform="translate(-2087.737 -406.72)" fill="#4a4a4a"/>
    <path id="Tracé_436" data-name="Tracé 436" d="M2361.839,439.222l-3.815,9.223-3.815-9.223h.719l3.133,7.8,3.071-7.8Z" transform="translate(-2176.906 -406.72)" fill="#4a4a4a"/>
    <path id="Tracé_437" data-name="Tracé 437" d="M2488.21,439.222v.583H2483.3v3.5h4.422v.583H2483.3v3.563h5.091v.583h-5.712v-8.812Z" transform="translate(-2295.698 -406.72)" fill="#4a4a4a"/>
    <path id="Tracé_438" data-name="Tracé 438" d="M2597.464,436.893v9.02h-.026l-6.907-7.643.012,7.435h-.606v-9h.038l6.91,7.708-.013-7.522Z" transform="translate(-2394.883 -404.391)" fill="#4a4a4a"/>
    <path id="Tracé_439" data-name="Tracé 439" d="M2724.1,439.222v.583h-2.641v8.229h-.619v-8.229h-2.615v-.583Z" transform="translate(-2513.508 -406.72)" fill="#4a4a4a"/>
    <path id="Tracé_440" data-name="Tracé 440" d="M2820.624,439.109a4.2,4.2,0,0,0-1.086-.149,2.189,2.189,0,0,0-1.416.428,1.349,1.349,0,0,0-.53,1.1,1.182,1.182,0,0,0,.284.8,2.267,2.267,0,0,0,.727.546q.442.217,1.137.478a8.109,8.109,0,0,1,1.257.558,2.581,2.581,0,0,1,.842.776,2.159,2.159,0,0,1,.341,1.26,2.393,2.393,0,0,1-.354,1.3,2.356,2.356,0,0,1-.991.875,3.294,3.294,0,0,1-1.459.31,5.171,5.171,0,0,1-2.83-.91l.291-.5a4.779,4.779,0,0,0,1.15.608,3.7,3.7,0,0,0,1.327.261,2.735,2.735,0,0,0,1.08-.218,1.96,1.96,0,0,0,.833-.662,1.751,1.751,0,0,0,.323-1.061,1.589,1.589,0,0,0-.3-.981,2.253,2.253,0,0,0-.745-.639,8.692,8.692,0,0,0-1.131-.49,10.6,10.6,0,0,1-1.251-.528,2.523,2.523,0,0,1-.828-.677,1.645,1.645,0,0,1-.337-1.055,1.919,1.919,0,0,1,.323-1.1,2.143,2.143,0,0,1,.9-.744,3.143,3.143,0,0,1,1.282-.279,5.224,5.224,0,0,1,1.257.161,5.791,5.791,0,0,1,1.156.414l-.24.471a6.271,6.271,0,0,0-1.01-.36" transform="translate(-2604.424 -405.974)" fill="#4a4a4a"/>
  </g>
</svg>
