<svg id="Groupe_302" data-name="Groupe 302" xmlns="http://www.w3.org/2000/svg" xmlns:xlink="http://www.w3.org/1999/xlink" width="191.113" height="41.797" viewBox="0 0 191.113 41.797">
  <defs>
    <clipPath id="clip-path">
      <rect id="Rectangle_85" data-name="Rectangle 85" width="191.113" height="41.797" fill="#4a4a4a"/>
    </clipPath>
  </defs>
  <path id="Tracé_397" data-name="Tracé 397" d="M118.546,0V14.872l15.137-7.437Z" transform="translate(-93.319 0.001)" fill="#4a4a4a"/>
  <g id="Groupe_301" data-name="Groupe 301" transform="translate(0 0)">
    <g id="Groupe_300" data-name="Groupe 300" clip-path="url(#clip-path)">
      <path id="Tracé_398" data-name="Tracé 398" d="M20.17,82.982H0A10,10,0,0,0,10.091,92.9h7.73a2.308,2.308,0,1,1,0,4.616H5.046a4.958,4.958,0,1,0,0,9.915H20.17a10,10,0,0,0,10.091-9.915V92.9A10,10,0,0,0,20.17,82.982Z" transform="translate(0 -65.631)" fill="#4a4a4a"/>
      <path id="Tracé_399" data-name="Tracé 399" d="M7.924,11.854h8.311A3.928,3.928,0,0,1,20.2,15.747v2.129a3.928,3.928,0,0,1-3.962,3.893H0V19.64a7.856,7.856,0,0,1,7.924-7.786" transform="translate(0 -9.375)" fill="#4a4a4a"/>
      <path id="Tracé_400" data-name="Tracé 400" d="M245.427,11.236c.4,0,.585.183.585.575v2.482c0,.392-.186.575-.585.575H232.1c-1.011,0-1.41.549-1.41,1.464v.888c0,.967.452,1.463,1.383,1.463h9.974c3.059,0,4.655,1.621,4.655,4.5V25.27c0,2.535-1.489,4.26-4.708,4.26H227.261c-.4,0-.612-.183-.612-.575V26.472c0-.392.213-.575.612-.575h13.964c1.01,0,1.41-.549,1.41-1.464V23.362c0-.967-.452-1.463-1.383-1.463h-9.974c-3.059,0-4.654-1.62-4.654-4.495V15.5c0-2.535,1.489-4.26,4.708-4.26Z" transform="translate(-178.396 -8.887)" fill="#4a4a4a"/>
      <path id="Tracé_401" data-name="Tracé 401" d="M349.9,11.237c5.4,0,7.447,1.882,7.447,6.9v4.495c0,5.018-2.048,6.9-7.447,6.9h-8.219c-5.373,0-7.447-1.882-7.447-6.9V18.136c0-5.018,2.075-6.9,7.447-6.9Zm-11.6,11.107c0,2.744.8,3.554,3.537,3.554h7.9c2.74,0,3.538-.81,3.538-3.554v-3.92c0-2.744-.8-3.554-3.538-3.554h-7.9c-2.739,0-3.537.81-3.537,3.554Z" transform="translate(-263.11 -8.887)" fill="#4a4a4a"/>
      <path id="Tracé_402" data-name="Tracé 402" d="M476.5,11.236c.4,0,.612.183.612.575v2.482c0,.392-.213.575-.612.575H464.958c-2.739,0-3.537.81-3.537,3.554v.523h14.948c.4,0,.585.183.585.575v2.065c0,.392-.186.575-.585.575H461.42v6.795c0,.392-.186.575-.585.575h-2.872c-.4,0-.612-.183-.612-.575V18.135c0-5.018,2.074-6.9,7.447-6.9Z" transform="translate(-360.024 -8.887)" fill="#4a4a4a"/>
      <path id="Tracé_403" data-name="Tracé 403" d="M577.672,11.237c4.07,0,5.718,1.855,5.718,5.383V18.11c0,2.979-1.17,4.73-3.963,5.227l4.548,5.54a.4.4,0,0,1-.346.653H580.2c-.452,0-.585-.1-.745-.34l-4.2-5.436h-8.591v5.2c0,.392-.186.575-.585.575H563.2c-.4,0-.612-.183-.612-.575V12.021a.7.7,0,0,1,.8-.784Zm-11.011,9.33h10.187c1.809,0,2.473-.758,2.473-2.326v-1.1c0-1.568-.665-2.326-2.473-2.326h-9.841c-.239,0-.346.1-.346.313Z" transform="translate(-442.868 -8.887)" fill="#4a4a4a"/>
      <path id="Tracé_404" data-name="Tracé 404" d="M682.448,11.237c1.356,0,2.181.418,3.059,1.986l8.8,15.706c.187.34.106.6-.319.6h-3.378a.553.553,0,0,1-.612-.34l-1.889-3.371h-12.5l-1.835,3.371a.571.571,0,0,1-.612.34h-3.457c-.452,0-.532-.261-.346-.6l8.724-15.706c.878-1.568,1.675-1.986,2.793-1.986Zm-5.16,11.551h9.149l-4.229-7.657a.311.311,0,0,0-.293-.183h-.16a.311.311,0,0,0-.293.183Z" transform="translate(-526.844 -8.887)" fill="#4a4a4a"/>
      <path id="Tracé_405" data-name="Tracé 405" d="M810.815,11.236c5.772,0,8.139,2.274,8.139,7.37V22.16c0,5.1-2.367,7.369-8.139,7.369H798.368a.7.7,0,0,1-.8-.784V12.02a.7.7,0,0,1,.8-.784Zm-9.176,14.321c0,.235.106.34.346.34h8.724c3.138,0,4.176-.993,4.176-4.077V18.945c0-3.084-1.037-4.077-4.176-4.077h-8.724c-.239,0-.346.1-.346.366Z" transform="translate(-627.842 -8.887)" fill="#4a4a4a"/>
      <path id="Tracé_406" data-name="Tracé 406" d="M246.273,112c.4,0,.612.183.612.575v2.482c0,.392-.213.575-.612.575H234.73c-2.739,0-3.538.81-3.538,3.554v.523H246.14c.4,0,.585.183.585.575v2.064c0,.392-.186.575-.585.575H231.192v6.795c0,.392-.186.575-.585.575h-2.872c-.4,0-.612-.183-.612-.575V118.9c0-5.018,2.074-6.9,7.447-6.9Z" transform="translate(-178.79 -88.581)" fill="#4a4a4a"/>
      <path id="Tracé_407" data-name="Tracé 407" d="M347.445,112c4.069,0,5.718,1.855,5.718,5.383v1.489c0,2.979-1.17,4.73-3.963,5.227l4.548,5.54a.4.4,0,0,1-.346.653h-3.431c-.452,0-.585-.1-.745-.34l-4.2-5.436h-8.591v5.2c0,.392-.186.575-.585.575h-2.872c-.4,0-.612-.183-.612-.575V112.784a.7.7,0,0,1,.8-.784Zm-11.011,9.33H346.62c1.809,0,2.474-.758,2.474-2.326v-1.1c0-1.568-.665-2.326-2.474-2.326h-9.841c-.239,0-.346.1-.346.313Z" transform="translate(-261.635 -88.581)" fill="#4a4a4a"/>
      <path id="Tracé_408" data-name="Tracé 408" d="M452.219,112c1.356,0,2.181.418,3.059,1.986l8.8,15.706c.186.34.106.6-.319.6h-3.378c-.346,0-.479-.078-.612-.34l-1.889-3.371h-12.5l-1.835,3.371a.571.571,0,0,1-.612.34h-3.457c-.452,0-.532-.261-.346-.6l8.724-15.706c.878-1.568,1.675-1.986,2.793-1.986Zm-5.16,11.551h9.149l-4.229-7.657a.311.311,0,0,0-.293-.183h-.16a.311.311,0,0,0-.293.183Z" transform="translate(-345.609 -88.581)" fill="#4a4a4a"/>
      <path id="Tracé_409" data-name="Tracé 409" d="M572.076,112a2.923,2.923,0,0,1,3.085,1.542l9.894,12.753a.363.363,0,0,0,.346.183h.239c.133,0,.213-.079.213-.261V112.575c0-.392.186-.575.585-.575h2.793c.4,0,.585.183.585.575v15c0,2.117-.771,2.718-2.394,2.718h-2.287c-1.623,0-2.021-.157-3.085-1.542L572.13,116a.39.39,0,0,0-.346-.183h-.239c-.16,0-.213.078-.213.261v13.642c0,.392-.186.575-.585.575h-2.793c-.4,0-.612-.183-.612-.575v-15c0-2.117.771-2.718,2.394-2.718Z" transform="translate(-446.608 -88.581)" fill="#4a4a4a"/>
      <path id="Tracé_410" data-name="Tracé 410" d="M708.026,112c.4,0,.585.183.585.575v2.561a.524.524,0,0,1-.585.6H696.19c-2.74,0-3.538.784-3.538,3.554V123c0,2.77.8,3.58,3.538,3.58h11.836c.4,0,.585.183.585.575v2.561c0,.392-.186.575-.585.575h-12c-5.372,0-7.447-1.882-7.447-6.9V118.9c0-5.018,2.075-6.9,7.447-6.9Z" transform="translate(-542.048 -88.581)" fill="#4a4a4a"/>
      <path id="Tracé_411" data-name="Tracé 411" d="M814.222,112c.4,0,.612.183.612.575v2.482c0,.392-.213.575-.612.575H802.6c-2.766,0-3.538.81-3.538,3.554v.261h15.027c.4,0,.585.183.585.575v2.064c0,.392-.186.575-.585.575H799.061v.444c0,2.744.771,3.554,3.538,3.554h11.623c.4,0,.612.183.612.575v2.483c0,.392-.213.575-.612.575h-11.7c-5.372,0-7.447-1.882-7.447-6.9V118.9c0-5.018,2.074-6.9,7.447-6.9Z" transform="translate(-625.875 -88.581)" fill="#4a4a4a"/>
    </g>
  </g>
</svg>
