<svg id="Groupe_306" data-name="Groupe 306" xmlns="http://www.w3.org/2000/svg" xmlns:xlink="http://www.w3.org/1999/xlink" width="134.014" height="76.832" viewBox="0 0 134.014 76.832">
  <defs>
    <clipPath id="clip-path">
      <rect id="Rectangle_89" data-name="Rectangle 89" width="134.014" height="76.832" fill="#4a4a4a"/>
    </clipPath>
  </defs>
  <g id="Groupe_305" data-name="Groupe 305" clip-path="url(#clip-path)">
    <path id="Tracé_441" data-name="Tracé 441" d="M104.35,0,63.316,18.944a14.853,14.853,0,0,0-6.109,22Z" transform="translate(-32.372)" fill="#4a4a4a"/>
    <path id="Tracé_442" data-name="Tracé 442" d="M47.144,89.836,0,130.781l41.034-18.945A14.852,14.852,0,0,0,47.144,89.836Z" transform="translate(0 -53.949)" fill="#4a4a4a"/>
    <path id="Tracé_443" data-name="Tracé 443" d="M132.909,98.683A11.728,11.728,0,0,1,134.5,93.86a9.34,9.34,0,0,1,3.338-3.355,8.361,8.361,0,0,1,4.518-1.118,7.107,7.107,0,0,1,4.077,1.235,6.872,6.872,0,0,1,2.506,3.288,10.272,10.272,0,0,1,.552,4.64,11.959,11.959,0,0,1-1.588,5.074,9.306,9.306,0,0,1-3.363,3.38,8.488,8.488,0,0,1-4.544,1.11,7.076,7.076,0,0,1-4.051-1.226,6.9,6.9,0,0,1-2.505-3.272,10.13,10.13,0,0,1-.578-4.582Zm3.957,2.287a4.713,4.713,0,0,0,.943,2.812,3.036,3.036,0,0,0,2.387,1.11,4.265,4.265,0,0,0,3.474-1.569,8.176,8.176,0,0,0,1.758-4.423l.1-1.635a5.7,5.7,0,0,0-.866-3.355,3.057,3.057,0,0,0-2.514-1.285,4.411,4.411,0,0,0-4.076,2.487,9.166,9.166,0,0,0-1.138,3.572,13.744,13.744,0,0,0-.068,2.287" transform="translate(-78.814 -53.677)" fill="#4a4a4a"/>
    <path id="Tracé_444" data-name="Tracé 444" d="M181.712,96.292l2.667-15.055h-2.735l.544-3h2.718l.272-1.936a7.173,7.173,0,0,1,2.3-4.44,6.875,6.875,0,0,1,4.8-1.6,13.323,13.323,0,0,1,2.4.334l-.442,3.171a6.929,6.929,0,0,0-1.512-.167,3.44,3.44,0,0,0-2.361.768,3.6,3.6,0,0,0-1.172,2.17l-.255,1.7h3.635l-.543,3H188.4l-2.667,15.055Z" transform="translate(-107.795 -42.189)" fill="#4a4a4a"/>
    <path id="Tracé_445" data-name="Tracé 445" d="M220.2,93.38a7.58,7.58,0,0,0-1.579-.167,4.739,4.739,0,0,0-4.212,2.153L212.2,107.734h-4.026l3.176-18.059,3.822-.016-.408,2.052a5.282,5.282,0,0,1,4.348-2.4,6.715,6.715,0,0,1,1.546.25Z" transform="translate(-123.538 -53.631)" fill="#4a4a4a"/>
    <path id="Tracé_446" data-name="Tracé 446" d="M248.009,107.783a5.279,5.279,0,0,1-.17-1.686,6.874,6.874,0,0,1-4.909,2.019,5.682,5.682,0,0,1-3.966-1.51,4.615,4.615,0,0,1-1.469-3.747,5.506,5.506,0,0,1,2.514-4.49,11.091,11.091,0,0,1,6.387-1.636l2.615.034.238-1.235a3.665,3.665,0,0,0,0-1.218,2.2,2.2,0,0,0-2.429-1.853,3.711,3.711,0,0,0-2.268.642,2.777,2.777,0,0,0-1.2,1.811l-4.026.034a4.9,4.9,0,0,1,1.206-2.929,7.153,7.153,0,0,1,2.887-1.961,9.924,9.924,0,0,1,3.8-.667,6.488,6.488,0,0,1,4.688,1.777,5.208,5.208,0,0,1,1.393,4.431l-1.41,8.462-.136,1.5a5.249,5.249,0,0,0,.255,1.919l-.017.3Zm-4.144-2.9a4.5,4.5,0,0,0,2.361-.576,6.192,6.192,0,0,0,1.852-1.578l.628-3.421-1.919-.017a6.845,6.845,0,0,0-3.635.843,3.089,3.089,0,0,0-1.546,2.311,2.022,2.022,0,0,0,.5,1.761,2.475,2.475,0,0,0,1.758.676" transform="translate(-140.935 -53.68)" fill="#4a4a4a"/>
    <path id="Tracé_447" data-name="Tracé 447" d="M283.832,87.849a14.113,14.113,0,0,1,1.529-5.007,8.521,8.521,0,0,1,2.939-3.313,6.87,6.87,0,0,1,3.89-1.043,5.466,5.466,0,0,1,4.383,2.052l1.767-9.279h4.043L297.845,96.9h-3.6l.272-1.87a6.459,6.459,0,0,1-5.028,2.22,5.089,5.089,0,0,1-4.1-1.945,8.39,8.39,0,0,1-1.656-5.083,13.3,13.3,0,0,1,.051-2.019Zm3.907,1.552a5.478,5.478,0,0,0,.654,3.288,2.622,2.622,0,0,0,2.3,1.252,4.748,4.748,0,0,0,4.026-2.219L296.1,83.96A3.14,3.14,0,0,0,293,81.807a4.155,4.155,0,0,0-3.72,2,10.535,10.535,0,0,0-1.546,5.591" transform="translate(-168.366 -42.793)" fill="#4a4a4a"/>
    <path id="Tracé_448" data-name="Tracé 448" d="M144.414,158.114h-2.182l.8-4.567h-4.208l-.812,4.567h-2.182l1.884-10.655H139.9l-.767,4.318h4.215l.759-4.318h2.182Z" transform="translate(-80.609 -88.553)" fill="#4a4a4a"/>
    <path id="Tracé_449" data-name="Tracé 449" d="M167.885,155.047q.157-.871-.871-1.332l-1.438-.563q-2.5-1.1-2.376-3.022a2.749,2.749,0,0,1,.6-1.581,3.591,3.591,0,0,1,1.527-1.079,5.5,5.5,0,0,1,2.123-.377,3.715,3.715,0,0,1,2.539.918,3.033,3.033,0,0,1,.953,2.382h-2.175a1.507,1.507,0,0,0-.324-1.127,1.476,1.476,0,0,0-1.121-.417,2.294,2.294,0,0,0-1.3.333,1.364,1.364,0,0,0-.655.955q-.142.8,1.087,1.266l.983.366.566.256q2.2,1.068,2.056,3a2.868,2.868,0,0,1-.615,1.628,3.457,3.457,0,0,1-1.49,1.05,5.384,5.384,0,0,1-2.074.344,4.7,4.7,0,0,1-2.055-.476,3.164,3.164,0,0,1-1.371-1.28,3.271,3.271,0,0,1-.409-1.756l2.182.007q-.1,1.735,1.735,1.764a2.311,2.311,0,0,0,1.311-.344,1.335,1.335,0,0,0,.611-.915" transform="translate(-96.163 -88.332)" fill="#4a4a4a"/>
    <path id="Tracé_450" data-name="Tracé 450" d="M191.445,153.5h-4.156l-.507,2.854h4.886l-.313,1.764h-7.068l1.884-10.655h7.053l-.32,1.778h-4.864l-.454,2.539h4.171Z" transform="translate(-109.363 -88.553)" fill="#4a4a4a"/>
  </g>
</svg>
