<svg id="instagram" xmlns="http://www.w3.org/2000/svg"  viewBox="0 0 18.581 18.581" fill="currentColor" >
  <path d="M13.551,0H5.03A5.035,5.035,0,0,0,0,5.03v8.522a5.035,5.035,0,0,0,5.03,5.029h8.522a5.035,5.035,0,0,0,5.029-5.029V5.03A5.035,5.035,0,0,0,13.551,0Zm3.94,13.551a3.945,3.945,0,0,1-3.94,3.94H5.03a3.945,3.945,0,0,1-3.94-3.94V5.03a3.945,3.945,0,0,1,3.94-3.94h8.522a3.945,3.945,0,0,1,3.94,3.94Zm0,0" />
  <path d="M121.084,116a5.081,5.081,0,1,0,5.081,5.081A5.086,5.086,0,0,0,121.084,116Zm0,9.072a3.991,3.991,0,1,1,3.991-3.991A4,4,0,0,1,121.084,125.076Zm0,0" transform="translate(-111.794 -111.794)" />
  <path d="M359.478,66.285a1.5,1.5,0,1,0,1.5,1.5A1.5,1.5,0,0,0,359.478,66.285Zm0,1.913a.412.412,0,1,1,.412-.412A.412.412,0,0,1,359.478,68.2Zm0,0" transform="translate(-344.985 -63.88)" />
</svg>
