<svg id="linkedin" xmlns="http://www.w3.org/2000/svg" viewBox="0 0 15.033 15.033" fill="currentColor" >
  <path d="M18.2,17.863h0V12.349c0-2.7-.581-4.775-3.734-4.775a3.273,3.273,0,0,0-2.948,1.62h-.044V7.826H8.489V17.862H11.6v-4.97c0-1.308.248-2.574,1.868-2.574,1.6,0,1.62,1.493,1.62,2.658v4.886Z" transform="translate(-3.172 -2.83)" />
  <path d="M.4,7.977H3.513V18.013H.4Z" transform="translate(-0.148 -2.981)" />
  <path d="M1.805,0A1.814,1.814,0,1,0,3.61,1.805,1.806,1.806,0,0,0,1.805,0Z" />
</svg>
