<svg xmlns="http://www.w3.org/2000/svg" viewBox="0 0 22.908 18.854" fill="currentColor" >
  <path d="M22.814,111.448a9.459,9.459,0,0,1-2.317.66c.372-.062.92-.737,1.139-1.01a4.254,4.254,0,0,0,.769-1.4c.02-.04.035-.09-.005-.12a.133.133,0,0,0-.123.01,11.833,11.833,0,0,1-2.747,1.051.184.184,0,0,1-.19-.051,2.137,2.137,0,0,0-.24-.245,4.844,4.844,0,0,0-1.33-.815,4.633,4.633,0,0,0-2.041-.329,4.878,4.878,0,0,0-1.936.547,4.989,4.989,0,0,0-1.562,1.276,4.789,4.789,0,0,0-.933,1.868,5.056,5.056,0,0,0-.05,1.972c.015.11,0,.125-.095.11a14.672,14.672,0,0,1-9.438-4.8c-.11-.126-.169-.126-.26.01a4.785,4.785,0,0,0,.815,5.655c.185.175.376.351.58.51a4.812,4.812,0,0,1-1.821-.51c-.11-.07-.165-.03-.175.1a2.851,2.851,0,0,0,.03.54,4.838,4.838,0,0,0,2.983,3.858,2.815,2.815,0,0,0,.6.185,5.39,5.39,0,0,1-1.786.055c-.13-.025-.18.04-.13.165a5.024,5.024,0,0,0,3.753,3.143c.17.03.34.03.511.07-.011.015-.021.015-.03.03-.422.643-1.882,1.121-2.563,1.358a9.173,9.173,0,0,1-3.892.5c-.209-.031-.254-.028-.31,0s-.007.086.06.14c.265.175.535.331.811.481a12.826,12.826,0,0,0,2.6,1.041,13.86,13.86,0,0,0,13.454-3.146c2.758-2.74,3.724-6.518,3.724-10.3,0-.148.175-.23.279-.308a9.119,9.119,0,0,0,1.832-1.9.578.578,0,0,0,.121-.365v-.02c0-.061,0-.042-.094,0" transform="translate(0 -109.188)" />
</svg>