<svg xmlns="http://www.w3.org/2000/svg" xmlns:xlink="http://www.w3.org/1999/xlink" width="83.51" height="80.17" viewBox="0 0 83.51 80.17">
  <defs>
    <clipPath id="clip-path">
      <rect id="Rectangle_37" data-name="Rectangle 37" width="83.51" height="80.17" fill="#4a4a4a"/>
    </clipPath>
  </defs>
  <g id="Groupe_232" data-name="Groupe 232" clip-path="url(#clip-path)">
    <path id="Tracé_227" data-name="Tracé 227" d="M75.083,143.058A76.669,76.669,0,0,1,57.341,155.59a121.143,121.143,0,0,1-14.784,6.752,2.2,2.2,0,0,1-1.723-.02c-10.077-3.911-19.47-8.676-27.612-15.023-4.868-3.8-8.987-8.03-11.5-13.223A18.836,18.836,0,0,1,0,128.431,20.006,20.006,0,0,0,1.885,136.5c2.5,5.388,6.6,9.784,11.451,13.721,8.109,6.586,17.463,11.531,27.5,15.589a2.113,2.113,0,0,0,1.716.02,118.387,118.387,0,0,0,14.723-7.006,76.447,76.447,0,0,0,17.669-13c5.192-5.321,8.326-11.237,8.567-18.142-.762,5.765-3.77,10.8-8.426,15.382" transform="translate(0 -85.829)" fill="#4a4a4a"/>
    <path id="Tracé_228" data-name="Tracé 228" d="M22.834,152.521c.053,0,.08.025.08.075v.336a.07.07,0,0,1-.08.079h-1.1v1.834a.067.067,0,0,1-.077.076h-.38a.067.067,0,0,1-.077-.076v-1.834h-1.1a.07.07,0,0,1-.08-.079V152.6c0-.05.027-.075.08-.075Z" transform="translate(-13.347 -102.531)" fill="#4a4a4a"/>
    <path id="Tracé_229" data-name="Tracé 229" d="M31.589,152.521a.781.781,0,0,1,.576.178.725.725,0,0,1,.174.528v.2a.791.791,0,0,1-.122.466.584.584,0,0,1-.4.219l.6.727a.054.054,0,0,1,.011.051c0,.023-.023.034-.056.034h-.45a.134.134,0,0,1-.063-.01.118.118,0,0,1-.035-.034l-.551-.713H30.144v.682a.067.067,0,0,1-.077.076H29.69c-.054,0-.08-.025-.08-.076v-2.222a.092.092,0,0,1,.1-.1Zm-1.445,1.224h1.337a.343.343,0,0,0,.251-.075.32.32,0,0,0,.073-.23V153.3a.319.319,0,0,0-.073-.23.343.343,0,0,0-.251-.075H30.189c-.03,0-.045.014-.045.041Z" transform="translate(-19.733 -102.531)" fill="#4a4a4a"/>
    <path id="Tracé_230" data-name="Tracé 230" d="M40.269,152.521a.432.432,0,0,1,.223.053.542.542,0,0,1,.178.207l1.155,2.061a.069.069,0,0,1,.009.057c-.006.015-.023.022-.05.022H41.34a.08.08,0,0,1-.08-.045l-.248-.442h-1.64l-.241.442a.084.084,0,0,1-.08.045H38.6c-.03,0-.048-.008-.054-.022a.071.071,0,0,1,.009-.057l1.145-2.061a.579.579,0,0,1,.171-.207.355.355,0,0,1,.2-.053Zm-.677,1.515h1.2l-.555-1a.044.044,0,0,0-.039-.024h-.021a.043.043,0,0,0-.038.024Z" transform="translate(-25.684 -102.531)" fill="#4a4a4a"/>
    <path id="Tracé_231" data-name="Tracé 231" d="M49.735,152.521a.067.067,0,0,1,.077.075v2.249a.067.067,0,0,1-.077.076h-.377c-.053,0-.08-.025-.08-.076V152.6c0-.05.026-.075.08-.075Z" transform="translate(-32.84 -102.531)" fill="#4a4a4a"/>
    <path id="Tracé_232" data-name="Tracé 232" d="M52.89,152.521a1.183,1.183,0,0,1,.14.007.277.277,0,0,1,.1.029.331.331,0,0,1,.08.062,1.1,1.1,0,0,1,.087.1l1.3,1.673a.048.048,0,0,0,.045.024h.031c.019,0,.028-.011.028-.034V152.6a.067.067,0,0,1,.077-.075h.366a.068.068,0,0,1,.077.075v1.968a.394.394,0,0,1-.077.283.331.331,0,0,1-.237.074h-.3a1.089,1.089,0,0,1-.134-.007.31.31,0,0,1-.1-.028.319.319,0,0,1-.082-.06,1.1,1.1,0,0,1-.092-.108l-1.3-1.673a.06.06,0,0,0-.045-.024H52.82q-.028,0-.028.034v1.79a.067.067,0,0,1-.077.076h-.367q-.08,0-.08-.076v-1.968a.392.392,0,0,1,.077-.283.332.332,0,0,1,.237-.074Z" transform="translate(-34.834 -102.531)" fill="#4a4a4a"/>
    <path id="Tracé_233" data-name="Tracé 233" d="M62.957,152.521a.067.067,0,0,1,.077.075v2.249a.067.067,0,0,1-.077.076H62.58q-.08,0-.08-.076V152.6c0-.05.027-.075.08-.075Z" transform="translate(-41.652 -102.531)" fill="#4a4a4a"/>
    <path id="Tracé_234" data-name="Tracé 234" d="M66.113,152.521a1.182,1.182,0,0,1,.14.007.277.277,0,0,1,.1.029.331.331,0,0,1,.08.062,1.1,1.1,0,0,1,.087.1l1.3,1.673a.048.048,0,0,0,.045.024h.031c.019,0,.028-.011.028-.034V152.6a.067.067,0,0,1,.077-.075h.366a.068.068,0,0,1,.077.075v1.968a.394.394,0,0,1-.077.283.331.331,0,0,1-.237.074h-.3a1.089,1.089,0,0,1-.134-.007.31.31,0,0,1-.1-.028.319.319,0,0,1-.082-.06,1.1,1.1,0,0,1-.092-.108l-1.3-1.673a.06.06,0,0,0-.045-.024h-.031q-.028,0-.028.034v1.79a.067.067,0,0,1-.077.076h-.367q-.08,0-.08-.076v-1.968a.392.392,0,0,1,.077-.283.332.332,0,0,1,.237-.074Z" transform="translate(-43.646 -102.531)" fill="#4a4a4a"/>
    <path id="Tracé_235" data-name="Tracé 235" d="M78.385,152.521a.067.067,0,0,1,.077.075v.336a.069.069,0,0,1-.077.079H76.637a.953.953,0,0,0-.225.022.293.293,0,0,0-.141.076.307.307,0,0,0-.075.142.95.95,0,0,0-.022.226v.494a.966.966,0,0,0,.022.228.306.306,0,0,0,.075.144.291.291,0,0,0,.141.075.938.938,0,0,0,.225.022h1.152a.17.17,0,0,0,.132-.046.244.244,0,0,0,.042-.163v-.278c0-.03-.014-.045-.042-.045H76.9a.069.069,0,0,1-.077-.079v-.257a.069.069,0,0,1,.077-.079h1.455a.092.092,0,0,1,.1.1v.8a.588.588,0,0,1-.112.406.421.421,0,0,1-.321.118h-1.41a1.808,1.808,0,0,1-.45-.048.689.689,0,0,1-.3-.156.629.629,0,0,1-.171-.281,1.419,1.419,0,0,1-.054-.42v-.59a1.405,1.405,0,0,1,.054-.419.626.626,0,0,1,.171-.279.708.708,0,0,1,.3-.158,1.772,1.772,0,0,1,.45-.05Z" transform="translate(-50.408 -102.531)" fill="#4a4a4a"/>
    <path id="Tracé_236" data-name="Tracé 236" d="M98.39,152.521a.067.067,0,0,1,.077.075v.336a.069.069,0,0,1-.077.079H96.837a.953.953,0,0,0-.225.022.3.3,0,0,0-.141.076.309.309,0,0,0-.075.142.949.949,0,0,0-.022.226v.487a.965.965,0,0,0,.022.228.308.308,0,0,0,.075.144.293.293,0,0,0,.141.075.936.936,0,0,0,.225.022H98.39a.067.067,0,0,1,.077.075v.336a.067.067,0,0,1-.077.076H96.816a1.809,1.809,0,0,1-.45-.048.687.687,0,0,1-.3-.156.629.629,0,0,1-.171-.281,1.42,1.42,0,0,1-.054-.42v-.59a1.406,1.406,0,0,1,.054-.419.626.626,0,0,1,.171-.279.706.706,0,0,1,.3-.158,1.772,1.772,0,0,1,.45-.05Z" transform="translate(-63.87 -102.531)" fill="#4a4a4a"/>
    <path id="Tracé_237" data-name="Tracé 237" d="M107.264,152.521c.053,0,.08.025.08.075v.326c0,.05-.027.075-.08.075h-1.525a.951.951,0,0,0-.225.023.3.3,0,0,0-.143.075.289.289,0,0,0-.075.144,1.012,1.012,0,0,0-.021.225v.034h1.972a.067.067,0,0,1,.077.075v.271a.067.067,0,0,1-.077.075h-1.972v.058a1.014,1.014,0,0,0,.021.225.286.286,0,0,0,.075.144.3.3,0,0,0,.143.075.937.937,0,0,0,.225.022h1.525q.08,0,.08.076v.325q0,.076-.08.076h-1.535a1.809,1.809,0,0,1-.45-.048.687.687,0,0,1-.3-.156.629.629,0,0,1-.171-.281,1.419,1.419,0,0,1-.054-.42v-.59a1.405,1.405,0,0,1,.054-.419.626.626,0,0,1,.171-.279.706.706,0,0,1,.3-.158,1.772,1.772,0,0,1,.45-.05Z" transform="translate(-69.81 -102.531)" fill="#4a4a4a"/>
    <path id="Tracé_238" data-name="Tracé 238" d="M114.348,152.521a1.182,1.182,0,0,1,.14.007.277.277,0,0,1,.1.029.331.331,0,0,1,.08.062,1.058,1.058,0,0,1,.087.1l1.3,1.673a.048.048,0,0,0,.045.024h.031c.019,0,.028-.011.028-.034V152.6a.067.067,0,0,1,.077-.075h.366a.068.068,0,0,1,.077.075v1.968a.394.394,0,0,1-.077.283.332.332,0,0,1-.237.074h-.3a1.089,1.089,0,0,1-.134-.007.31.31,0,0,1-.1-.028.318.318,0,0,1-.082-.06,1.1,1.1,0,0,1-.092-.108l-1.3-1.673a.06.06,0,0,0-.045-.024h-.031q-.028,0-.028.034v1.79a.067.067,0,0,1-.077.076h-.367q-.08,0-.08-.076v-1.968a.392.392,0,0,1,.077-.283.332.332,0,0,1,.237-.074Z" transform="translate(-75.791 -102.531)" fill="#4a4a4a"/>
    <path id="Tracé_239" data-name="Tracé 239" d="M126.314,152.521c.053,0,.08.025.08.075v.336a.07.07,0,0,1-.08.079h-1.1v1.834a.067.067,0,0,1-.077.076h-.38a.067.067,0,0,1-.077-.076v-1.834h-1.1a.07.07,0,0,1-.08-.079V152.6c0-.05.027-.075.08-.075Z" transform="translate(-82.309 -102.531)" fill="#4a4a4a"/>
    <path id="Tracé_240" data-name="Tracé 240" d="M135.31,152.521c.053,0,.08.025.08.075v.326c0,.05-.027.075-.08.075h-1.525a.951.951,0,0,0-.225.023.3.3,0,0,0-.143.075.289.289,0,0,0-.075.144,1.013,1.013,0,0,0-.021.225v.034h1.972a.067.067,0,0,1,.077.075v.271a.067.067,0,0,1-.077.075h-1.972v.058a1.015,1.015,0,0,0,.021.225.286.286,0,0,0,.075.144.3.3,0,0,0,.143.075.937.937,0,0,0,.225.022h1.525q.08,0,.08.076v.325q0,.076-.08.076h-1.535a1.809,1.809,0,0,1-.45-.048.69.69,0,0,1-.3-.156.631.631,0,0,1-.17-.281,1.408,1.408,0,0,1-.054-.42v-.59a1.394,1.394,0,0,1,.054-.419.627.627,0,0,1,.17-.279.71.71,0,0,1,.3-.158,1.772,1.772,0,0,1,.45-.05Z" transform="translate(-88.5 -102.531)" fill="#4a4a4a"/>
    <path id="Tracé_241" data-name="Tracé 241" d="M143.752,152.521a.781.781,0,0,1,.575.178.725.725,0,0,1,.174.528v.2a.791.791,0,0,1-.122.466.585.585,0,0,1-.4.219l.6.727a.053.053,0,0,1,.01.051c0,.023-.023.034-.056.034h-.45a.134.134,0,0,1-.063-.01.118.118,0,0,1-.035-.034l-.551-.713h-1.127v.682a.067.067,0,0,1-.077.076h-.377c-.053,0-.08-.025-.08-.076v-2.222a.092.092,0,0,1,.105-.1Zm-1.445,1.224h1.337a.341.341,0,0,0,.251-.075.319.319,0,0,0,.074-.23V153.3a.317.317,0,0,0-.074-.23.341.341,0,0,0-.251-.075h-1.291c-.03,0-.045.014-.045.041Z" transform="translate(-94.482 -102.531)" fill="#4a4a4a"/>
    <path id="Tracé_242" data-name="Tracé 242" d="M164.1,152.521a.067.067,0,0,1,.077.075v.326a.067.067,0,0,1-.077.075h-1.748a.175.175,0,0,0-.143.052.217.217,0,0,0-.042.141v.117q0,.192.181.192h1.309a.621.621,0,0,1,.457.153.589.589,0,0,1,.153.437v.274a.555.555,0,0,1-.15.4.627.627,0,0,1-.468.154h-1.933c-.053,0-.08-.025-.08-.076v-.325c0-.05.027-.076.08-.076h1.832a.175.175,0,0,0,.143-.051.216.216,0,0,0,.042-.141v-.141c0-.128-.061-.192-.181-.192h-1.309a.621.621,0,0,1-.457-.153.589.589,0,0,1-.154-.437v-.25a.555.555,0,0,1,.15-.4.627.627,0,0,1,.468-.154Z" transform="translate(-107.714 -102.531)" fill="#4a4a4a"/>
    <path id="Tracé_243" data-name="Tracé 243" d="M171.154,152.521a.067.067,0,0,1,.077.075v1.368a.963.963,0,0,0,.023.228.305.305,0,0,0,.075.144.291.291,0,0,0,.141.075.932.932,0,0,0,.225.022h.966a.936.936,0,0,0,.225-.022.267.267,0,0,0,.214-.22,1.031,1.031,0,0,0,.021-.228V152.6a.067.067,0,0,1,.077-.075h.38a.067.067,0,0,1,.077.075v1.419a1.47,1.47,0,0,1-.052.42.617.617,0,0,1-.169.281.688.688,0,0,1-.3.156,1.832,1.832,0,0,1-.452.048h-1.005a1.812,1.812,0,0,1-.45-.048.689.689,0,0,1-.3-.156.632.632,0,0,1-.171-.281,1.421,1.421,0,0,1-.054-.42V152.6c0-.05.027-.075.08-.075Z" transform="translate(-113.758 -102.531)" fill="#4a4a4a"/>
    <path id="Tracé_244" data-name="Tracé 244" d="M183.406,152.521a.067.067,0,0,1,.077.075v.336a.068.068,0,0,1-.077.079h-1.553a.954.954,0,0,0-.225.022.3.3,0,0,0-.141.076.306.306,0,0,0-.075.142.929.929,0,0,0-.023.226v.487a.945.945,0,0,0,.023.228.3.3,0,0,0,.075.144.293.293,0,0,0,.141.075.936.936,0,0,0,.225.022h1.553a.067.067,0,0,1,.077.075v.336a.067.067,0,0,1-.077.076h-1.574a1.808,1.808,0,0,1-.45-.048.69.69,0,0,1-.3-.156.631.631,0,0,1-.171-.281,1.42,1.42,0,0,1-.054-.42v-.59a1.406,1.406,0,0,1,.054-.419.628.628,0,0,1,.171-.279.71.71,0,0,1,.3-.158,1.771,1.771,0,0,1,.45-.05Z" transform="translate(-120.527 -102.531)" fill="#4a4a4a"/>
    <path id="Tracé_245" data-name="Tracé 245" d="M191.83,152.521a.781.781,0,0,1,.575.178.725.725,0,0,1,.174.528v.2a.791.791,0,0,1-.122.466.585.585,0,0,1-.4.219l.6.727a.054.054,0,0,1,.011.051c0,.023-.023.034-.056.034h-.45a.132.132,0,0,1-.063-.01.115.115,0,0,1-.035-.034l-.551-.713h-1.127v.682a.067.067,0,0,1-.077.076h-.377c-.053,0-.08-.025-.08-.076v-2.222a.092.092,0,0,1,.105-.1Zm-1.445,1.224h1.337a.343.343,0,0,0,.251-.075.32.32,0,0,0,.073-.23V153.3a.319.319,0,0,0-.073-.23.343.343,0,0,0-.251-.075H190.43c-.03,0-.045.014-.045.041Z" transform="translate(-126.522 -102.531)" fill="#4a4a4a"/>
    <path id="Tracé_246" data-name="Tracé 246" d="M201.559,152.521c.053,0,.08.025.08.075v.326c0,.05-.027.075-.08.075h-1.525a.951.951,0,0,0-.225.023.3.3,0,0,0-.143.075.289.289,0,0,0-.075.144,1.014,1.014,0,0,0-.021.225v.034h1.972a.067.067,0,0,1,.077.075v.271a.067.067,0,0,1-.077.075H199.57v.058a1.016,1.016,0,0,0,.021.225.287.287,0,0,0,.075.144.3.3,0,0,0,.143.075.937.937,0,0,0,.225.022h1.525q.08,0,.08.076v.325q0,.076-.08.076h-1.535a1.808,1.808,0,0,1-.45-.048.69.69,0,0,1-.3-.156.628.628,0,0,1-.17-.281,1.408,1.408,0,0,1-.054-.42v-.59a1.4,1.4,0,0,1,.054-.419.625.625,0,0,1,.17-.279.71.71,0,0,1,.3-.158,1.771,1.771,0,0,1,.45-.05Z" transform="translate(-132.651 -102.531)" fill="#4a4a4a"/>
    <path id="Tracé_247" data-name="Tracé 247" d="M210,152.521a.781.781,0,0,1,.575.178.725.725,0,0,1,.174.528v.2a.79.79,0,0,1-.122.466.584.584,0,0,1-.4.219l.6.727a.054.054,0,0,1,.011.051c0,.023-.023.034-.056.034h-.45a.132.132,0,0,1-.063-.01.115.115,0,0,1-.035-.034l-.551-.713h-1.127v.682a.067.067,0,0,1-.077.076H208.1c-.053,0-.08-.025-.08-.076v-2.222a.092.092,0,0,1,.105-.1Zm-1.445,1.224h1.337a.342.342,0,0,0,.251-.075.32.32,0,0,0,.073-.23V153.3a.319.319,0,0,0-.073-.23.342.342,0,0,0-.251-.075H208.6c-.03,0-.045.014-.045.041Z" transform="translate(-138.632 -102.531)" fill="#4a4a4a"/>
    <path id="Tracé_248" data-name="Tracé 248" d="M217.946,152.521a.067.067,0,0,1,.076.075v2.249a.067.067,0,0,1-.076.076h-.377c-.054,0-.08-.025-.08-.076V152.6c0-.05.027-.075.08-.075Z" transform="translate(-144.941 -102.531)" fill="#4a4a4a"/>
    <path id="Tracé_249" data-name="Tracé 249" d="M222.91,152.521c.053,0,.08.025.08.075v.326c0,.05-.027.075-.08.075h-1.525a.951.951,0,0,0-.225.023.3.3,0,0,0-.143.075.289.289,0,0,0-.075.144,1.014,1.014,0,0,0-.021.225v.034h1.972a.067.067,0,0,1,.077.075v.271a.067.067,0,0,1-.077.075h-1.972v.058a1.016,1.016,0,0,0,.021.225.287.287,0,0,0,.075.144.3.3,0,0,0,.143.075.937.937,0,0,0,.225.022h1.525q.08,0,.08.076v.325q0,.076-.08.076h-1.535a1.809,1.809,0,0,1-.45-.048.69.69,0,0,1-.3-.156.627.627,0,0,1-.17-.281,1.407,1.407,0,0,1-.054-.42v-.59a1.394,1.394,0,0,1,.054-.419.624.624,0,0,1,.17-.279.709.709,0,0,1,.3-.158,1.772,1.772,0,0,1,.45-.05Z" transform="translate(-146.88 -102.531)" fill="#4a4a4a"/>
    <path id="Tracé_250" data-name="Tracé 250" d="M88.48,150.77h.789l-2.443,3.1h-.8Z" transform="translate(-57.333 -101.354)" fill="#4a4a4a"/>
    <path id="Tracé_251" data-name="Tracé 251" d="M154.105,150.77h.789l-2.444,3.1h-.8Z" transform="translate(-101.067 -101.354)" fill="#4a4a4a"/>
    <path id="Tracé_252" data-name="Tracé 252" d="M105.782,2.78V10.47h8.808v8.924H89.425V10.47h8.7V2.78L102.019,0Z" transform="translate(-59.595 0)" fill="#4a4a4a"/>
    <path id="Tracé_253" data-name="Tracé 253" d="M33.564,71.5a.672.672,0,0,1,.766.755v3.36a.687.687,0,0,1-.766.789H23.107V94.746a.657.657,0,0,1-.733.754h-3.63a.657.657,0,0,1-.733-.754V76.4H7.554a.687.687,0,0,1-.766-.789v-3.36a.672.672,0,0,1,.766-.755Z" transform="translate(-4.524 -48.063)" fill="#4a4a4a"/>
    <path id="Tracé_254" data-name="Tracé 254" d="M114.8,71.5a.658.658,0,0,1,.733.755v3.36q0,.789-.733.789H99.98a8.64,8.64,0,0,0-2.148.223,2.765,2.765,0,0,0-1.349.754,3.105,3.105,0,0,0-.716,1.423,9.809,9.809,0,0,0-.216,2.263v4.869a10.028,10.028,0,0,0,.216,2.28,3.108,3.108,0,0,0,.716,1.44,2.763,2.763,0,0,0,1.349.755,8.642,8.642,0,0,0,2.148.223H114.8a.658.658,0,0,1,.733.755v3.36a.657.657,0,0,1-.733.754H99.78a16.56,16.56,0,0,1-4.3-.48,6.5,6.5,0,0,1-2.88-1.56,6.342,6.342,0,0,1-1.632-2.812,14.849,14.849,0,0,1-.516-4.2v-5.9a14.669,14.669,0,0,1,.516-4.183A6.347,6.347,0,0,1,92.6,73.572a6.638,6.638,0,0,1,2.88-1.577,16.057,16.057,0,0,1,4.3-.5Z" transform="translate(-60.282 -48.063)" fill="#4a4a4a"/>
    <path id="Tracé_255" data-name="Tracé 255" d="M193.672,71.5a.658.658,0,0,1,.732.755v3.258a.657.657,0,0,1-.732.755H176.987a1.628,1.628,0,0,0-1.365.514,2.237,2.237,0,0,0-.4,1.406V79.35q0,1.921,1.732,1.92h12.489a5.781,5.781,0,0,1,4.363,1.526,6.065,6.065,0,0,1,1.465,4.372v2.743a5.712,5.712,0,0,1-1.432,4.046,5.817,5.817,0,0,1-4.462,1.543h-18.45a.672.672,0,0,1-.766-.754V91.489a.672.672,0,0,1,.766-.755H188.41a1.629,1.629,0,0,0,1.365-.514,2.238,2.238,0,0,0,.4-1.406V87.408q0-1.92-1.732-1.92H175.954a5.778,5.778,0,0,1-4.363-1.526,6.061,6.061,0,0,1-1.465-4.372v-2.5a5.711,5.711,0,0,1,1.432-4.046,5.816,5.816,0,0,1,4.463-1.543Z" transform="translate(-113.377 -48.063)" fill="#4a4a4a"/>
  </g>
</svg>
