<svg id="Groupe_254" data-name="Groupe 254" xmlns="http://www.w3.org/2000/svg" xmlns:xlink="http://www.w3.org/1999/xlink" width="180.292" height="32.381" viewBox="0 0 180.292 32.381">
  <defs>
    <clipPath id="clip-path">
      <rect id="Rectangle_2" data-name="Rectangle 2" width="180.292" height="32.381" fill="#fff"/>
    </clipPath>
  </defs>
  <g id="Groupe_1" data-name="Groupe 1" clip-path="url(#clip-path)">
    <path id="Tracé_1" data-name="Tracé 1" d="M187.012,20.664h-7.823c-.09,0-.18,0-.27,0-.41-.013-.586-.177-.618-.576,0-.026,0-.051,0-.077,0-.925-.007-1.85,0-2.775,0-.5.182-.662.681-.668.3,0,.591,0,.886,0h13.488a4.4,4.4,0,0,0,.653-.037,1.167,1.167,0,0,0,1-.888,1.312,1.312,0,0,0,.048-.225,8.126,8.126,0,0,0,0-2.187,1.241,1.241,0,0,0-1.326-1.18c-.1-.006-.206,0-.308,0H183.291a7.537,7.537,0,0,1-1.683-.158,3.971,3.971,0,0,1-3.126-3.05,5.886,5.886,0,0,1-.208-1.445,29.416,29.416,0,0,1,.04-3.388,4.843,4.843,0,0,1,.432-1.588A3.991,3.991,0,0,1,182,.082,8.523,8.523,0,0,1,183.271,0q7.245,0,14.49,0c.1,0,.206,0,.308,0,.4.015.591.2.595.6q.013,1.445,0,2.89c0,.426-.185.595-.617.615-.115.005-.231,0-.347,0H184.213a4,4,0,0,0-.537.03,1.173,1.173,0,0,0-1.037.945,2.08,2.08,0,0,0-.081.57q.005.616,0,1.233a2.1,2.1,0,0,0,.074.532,1.212,1.212,0,0,0,1.138.98c.153.015.308.01.462.01q5.126,0,10.251,0a6.854,6.854,0,0,1,1.642.179,3.982,3.982,0,0,1,3.082,3.144,6.56,6.56,0,0,1,.187,1.564c0,1.079.045,2.158-.031,3.236a4.858,4.858,0,0,1-.521,1.878,3.988,3.988,0,0,1-3.163,2.176,8.225,8.225,0,0,1-1.267.082q-3.7,0-7.4,0" transform="translate(-144.225 0)" fill="#141414"/>
    <path id="Tracé_2" data-name="Tracé 2" d="M847.882,12.048h-7.631c-.451,0-.417-.047-.417.411a9.656,9.656,0,0,0,.191,2.1,2.289,2.289,0,0,0,1.925,1.853,8.746,8.746,0,0,0,1.8.152c3.931,0,7.862.006,11.793-.006.671,0,.9.114.894.9-.009.771,0,1.541,0,2.312a2.365,2.365,0,0,1-.031.421.5.5,0,0,1-.523.464c-.089.007-.18,0-.27,0H843.126a13.187,13.187,0,0,1-2.942-.319,5.251,5.251,0,0,1-4.224-4.234,11.438,11.438,0,0,1-.314-2.555q-.013-3.218,0-6.436a10.932,10.932,0,0,1,.384-2.816A5.222,5.222,0,0,1,839.976.393,12.138,12.138,0,0,1,843.1,0Q849.382,0,855.664,0a1.583,1.583,0,0,1,.307.012.479.479,0,0,1,.421.393,2.431,2.431,0,0,1,.043.42c0,.822,0,1.644,0,2.467a1.824,1.824,0,0,1-.022.307.511.511,0,0,1-.535.5c-.14.012-.282.01-.424.01H843.509a8.011,8.011,0,0,0-1.456.127,2.326,2.326,0,0,0-2.066,2.033,10.133,10.133,0,0,0-.155,1.917c0,.161.041.242.214.225.089-.009.18,0,.27,0h15.069c.745,0,.867.123.868.871q0,.983,0,1.965a2.337,2.337,0,0,1-.021.384.454.454,0,0,1-.41.4,2.943,2.943,0,0,1-.423.018h-7.515" transform="translate(-676.148 -0.002)" fill="#141414"/>
    <path id="Tracé_3" data-name="Tracé 3" d="M318.118,20.667h-6.049a13.5,13.5,0,0,1-2.865-.3,5.259,5.259,0,0,1-4.309-4.282,11.486,11.486,0,0,1-.308-2.517q-.014-3.217,0-6.434a11,11,0,0,1,.383-2.815A5.224,5.224,0,0,1,308.908.4a12.064,12.064,0,0,1,3.124-.39Q318.466,0,324.9,0c.051,0,.1,0,.154,0a.524.524,0,0,1,.582.567c.016.333.007.668.007,1,0,.668.007,1.336,0,2-.008.466-.2.648-.664.658-.359.007-.719,0-1.079,0H312.57a9.356,9.356,0,0,0-1.267.078,2.443,2.443,0,0,0-2.317,2.237,8.873,8.873,0,0,0-.124,1.457q-.013,2.427.01,4.854a7.094,7.094,0,0,0,.188,1.6,2.327,2.327,0,0,0,1.993,1.881,8.061,8.061,0,0,0,1.455.127q6.088,0,12.176,0a4.226,4.226,0,0,1,.462.015c.294.032.473.174.482.456.035,1.091.039,2.183,0,3.274-.01.274-.209.421-.494.445-.1.009-.205,0-.308,0h-6.7" transform="translate(-246.447 -0.003)" fill="#141414"/>
    <path id="Tracé_4" data-name="Tracé 4" d="M444.717,120.37c0,.6.012,1.207.012,1.81q0,2.87,0,5.739c0,.09,0,.18,0,.27.006.125-.035.2-.174.186a1.529,1.529,0,0,0-.231,0c-.14.01-.178-.068-.173-.189,0-.051,0-.1,0-.154q0-4.372,0-8.744a.28.28,0,0,1,.069-.255l8.887,8.472v-7.751c0-.064,0-.128,0-.193,0-.121.031-.2.172-.188a1.394,1.394,0,0,0,.231,0c.141-.012.179.062.173.185,0,.051,0,.1,0,.154v8.97c-.133.053-.167-.061-.222-.113q-4.185-3.982-8.364-7.97c-.1-.1-.193-.2-.29-.308-.091-.042-.113-.007-.09.08" transform="translate(-359.378 -96.314)" fill="#97d246"/>
    <path id="Tracé_5" data-name="Tracé 5" d="M753.914,121.137c-.036.05-.057.082-.081.111a.5.5,0,0,1-.66.125,5.625,5.625,0,0,0-5.24.346,3.961,3.961,0,0,0-1.819,2.119,3.449,3.449,0,0,0,.941,3.8,5.19,5.19,0,0,0,3.5,1.48,6.233,6.233,0,0,0,2.348-.329c.2-.07.314-.156.3-.406-.023-.6,0-1.207-.008-1.81,0-.443-.035-.471-.489-.473-.539,0-1.079,0-1.618,0a.261.261,0,0,1-.225-.391c.048-.08.135-.057.209-.058q.79,0,1.579,0c.154,0,.309-.006.462,0,.442.023.63.2.65.644.016.346,0,.693,0,1.04,0,.424-.022.849.008,1.271a.449.449,0,0,1-.342.506,6.488,6.488,0,0,1-2.664.5,5.929,5.929,0,0,1-4.072-1.554,4.018,4.018,0,0,1-.054-6.025,6.065,6.065,0,0,1,4.855-1.59,6.166,6.166,0,0,1,2.415.694" transform="translate(-603.06 -97.434)" fill="#97d246"/>
    <path id="Tracé_6" data-name="Tracé 6" d="M373.906,129.776a.872.872,0,0,1-.033-.39q0-4.083,0-8.167c0-.026,0-.051,0-.077,0-.309.2-.44.491-.327a.137.137,0,0,1,.087.15c0,.09,0,.18,0,.27q0,1.753,0,3.506c0,.317,0,.321.31.321h6.01c.344,0,.322.009.322-.348q0-1.733,0-3.467c0-.09,0-.18,0-.27-.005-.111.04-.17.153-.171.077,0,.154,0,.231,0,.14-.008.222.039.208.2-.007.077,0,.154,0,.231v8.128c0,.026,0,.051,0,.077,0,.341-.163.453-.5.353-.08-.024-.092-.075-.092-.142,0-.09,0-.18,0-.27q0-1.791,0-3.583c0-.307,0-.31-.316-.31h-6.009c-.311,0-.315,0-.315.313,0,1.207,0,2.414,0,3.621,0,.411.082.371-.4.374a1.016,1.016,0,0,1-.143-.018" transform="translate(-302.51 -97.724)" fill="#97d246"/>
    <path id="Tracé_7" data-name="Tracé 7" d="M249.655,121.36h-.487q-2.446,0-4.893,0c-.455,0-.4-.068-.4.414,0,1,0,2,0,3,0,.462-.034.4.421.4,1.5,0,3,0,4.507,0,.287,0,.251.05.256.3,0,.1-.056.131-.144.131h-.27q-2.235,0-4.469,0c-.3,0-.3-.007-.3.288,0,1.1,0,2.209,0,3.313,0,.287.005.292.3.292q2.62,0,5.239,0c.09,0,.181.007.27,0,.173-.016.213.066.216.227s-.067.194-.206.193c-.372,0-.745,0-1.117,0h-4.969c-.362,0-.329.027-.329-.334q0-4.141,0-8.282c0-.077,0-.154,0-.231,0-.1.056-.136.144-.14s.154,0,.231,0h5.663c.317,0,.386-.067.337.434" transform="translate(-196.846 -97.845)" fill="#97d246"/>
    <path id="Tracé_8" data-name="Tracé 8" d="M849.692,125.393q0-2.061,0-4.123c0-.366,0-.368.342-.369q2.87,0,5.741,0c.112,0,.269-.068.3.138.037.244,0,.292-.292.292q-2.543,0-5.086,0c-.09,0-.18,0-.27,0-.113,0-.162.046-.16.16,0,.206,0,.411,0,.616q0,1.348,0,2.7c0,.347,0,.349.361.349h4.392c.077,0,.155.005.231,0,.163-.013.222.051.226.221,0,.188-.09.205-.237.2q-2.254,0-4.508,0c-.536,0-.463-.07-.465.472,0,1.027,0,2.055,0,3.082,0,.334,0,.337.334.337h5.2a2.491,2.491,0,0,0,.269,0c.169-.018.218.051.223.218.005.188-.084.2-.233.2-2.042,0-4.084-.006-6.126,0-.217,0-.249-.078-.248-.265.006-1.413,0-2.826,0-4.238" transform="translate(-687.516 -97.819)" fill="#97d246"/>
    <path id="Tracé_9" data-name="Tracé 9" d="M910.441,128.663c.03-.032.062-.072.1-.105.263-.237.263-.236.557-.017a3.82,3.82,0,0,0,3.528.655,2.834,2.834,0,0,0,.825-.407,1.6,1.6,0,0,0-.052-2.782,3.436,3.436,0,0,0-.763-.36c-.521-.18-1.054-.321-1.587-.46a5.081,5.081,0,0,1-1.213-.478,2.058,2.058,0,0,1-.015-3.624,2.488,2.488,0,0,1,.937-.33,4.142,4.142,0,0,1,3.092.682c.007.115-.066.16-.116.215-.184.206-.188.208-.429.049a3.189,3.189,0,0,0-2.542-.444,1.73,1.73,0,0,0-1.4,1.812,1.3,1.3,0,0,0,.56,1.046,4.279,4.279,0,0,0,1.362.609c.505.143,1.008.294,1.514.437a4.3,4.3,0,0,1,1.134.558,2.035,2.035,0,0,1,.329,3.091,3.291,3.291,0,0,1-2,.981,4.668,4.668,0,0,1-3.656-.957c-.058-.046-.13-.08-.162-.171" transform="translate(-736.673 -97.663)" fill="#97d246"/>
    <path id="Tracé_10" data-name="Tracé 10" d="M311.479,128.995a6.381,6.381,0,0,1-2.921.616,5.925,5.925,0,0,1-4.072-1.554,4.017,4.017,0,0,1-.053-6.026,6.07,6.07,0,0,1,4.856-1.59,6,6,0,0,1,1.97.486.375.375,0,0,1,.192.12c-.023.078-.1.111-.145.169-.141.181-.29.172-.5.093a5.753,5.753,0,0,0-4.527.1,4.884,4.884,0,0,0-1.608,1.17,3.528,3.528,0,0,0,.152,5.047,5.713,5.713,0,0,0,5.835,1.154.6.6,0,0,1,.82.214" transform="translate(-245.249 -97.433)" fill="#97d246"/>
    <path id="Tracé_11" data-name="Tracé 11" d="M182.32,121.365v8.092c0,.09-.007.18,0,.27.014.154-.057.207-.2.195-.089-.007-.18,0-.27,0a.1.1,0,0,1-.114-.119c0-.1,0-.205,0-.308v-7.668c0-.09-.007-.181,0-.27.015-.16-.067-.194-.207-.191-.3.006-.591,0-.886,0q-1.329,0-2.659,0c-.269,0-.287-.029-.265-.276.01-.112.053-.163.165-.158.077,0,.154,0,.231,0h7.938c.15,0,.3-.037.31.215s-.147.219-.3.219H182.32Z" transform="translate(-143.793 -97.848)" fill="#97d246"/>
    <path id="Tracé_12" data-name="Tracé 12" d="M604.548,125.313q0-2.079,0-4.159c0-.325.166-.442.478-.344a.131.131,0,0,1,.1.142c0,.1,0,.205,0,.308q0,3.851,0,7.7c0,.433-.067.418.408.418h5.2c.09,0,.18,0,.269,0,.159-.006.146.106.146.209s.021.216-.143.207c-.077,0-.154,0-.231,0H604.92a.8.8,0,0,0-.115,0c-.2.029-.268-.042-.261-.249.015-.474,0-.95,0-1.424v-2.811" transform="translate(-489.159 -97.725)" fill="#97d246"/>
    <path id="Tracé_13" data-name="Tracé 13" d="M818.576,125.4c0,1.4,0,2.8,0,4.195,0,.1.071.264-.071.3a1.41,1.41,0,0,1-.457,0c-.056,0-.066-.068-.066-.12,0-.09,0-.18,0-.269v-8.159c0-.077.006-.154,0-.231-.013-.156.068-.2.208-.2.077,0,.154,0,.231,0,.109,0,.166.048.161.163,0,.09,0,.179,0,.269V125.4" transform="translate(-661.856 -97.846)" fill="#97d246"/>
    <path id="Tracé_14" data-name="Tracé 14" d="M446.927,125.376c-.042-.048-.077-.106-.006-.148.046-.027.088.01.1.068-.052,0-.066.047-.09.08" transform="translate(-361.588 -101.32)" fill="#97d246"/>
    <path id="Tracé_15" data-name="Tracé 15" d="M453.647,6.907a10.7,10.7,0,0,0-.31-2.4,5.2,5.2,0,0,0-4.01-4.118A12.537,12.537,0,0,0,446.164,0Q441.5,0,436.84,0a12.273,12.273,0,0,0-3.124.383,5.225,5.225,0,0,0-3.969,3.933,11.053,11.053,0,0,0-.381,2.815c-.013,2.055-.011,4.11-.008,6.164a12.344,12.344,0,0,0,.324,2.824,5.255,5.255,0,0,0,4.27,4.231,13.329,13.329,0,0,0,2.865.309q2.331,0,4.662,0,2.37,0,4.739,0a12.516,12.516,0,0,0,3.2-.394,5.084,5.084,0,0,0,3.852-3.844,10.5,10.5,0,0,0,.374-2.623q.025-3.448,0-6.9m-4.264,5.775a9.347,9.347,0,0,1-.134,1.571,2.472,2.472,0,0,1-2.48,2.245,14.849,14.849,0,0,1-1.5.069c-1.259,0-2.517,0-3.776,0v-.008c-1.477,0-2.954.007-4.431,0a5.921,5.921,0,0,1-1.561-.2,2.21,2.21,0,0,1-1.586-1.533,6.641,6.641,0,0,1-.277-2.091c0-1.849-.058-3.7.04-5.546a5.12,5.12,0,0,1,.249-1.359,2.2,2.2,0,0,1,1.608-1.511,6.353,6.353,0,0,1,1.639-.2q4.335-.01,8.669,0a7.511,7.511,0,0,1,1.378.134,2.308,2.308,0,0,1,1.952,1.829,7.893,7.893,0,0,1,.211,1.909q.013,2.35,0,4.7" transform="translate(-347.408 0)" fill="#141414"/>
    <path id="Tracé_16" data-name="Tracé 16" d="M597.232,19.77q-2.167-2.828-4.329-5.659c-.1-.13-.2-.262-.319-.428.2-.049.341-.081.478-.116a4.36,4.36,0,0,0,3.365-3.29,7.83,7.83,0,0,0,.288-1.9q.027-1.444,0-2.889a7.472,7.472,0,0,0-.308-1.972A4.394,4.394,0,0,0,592.943.232,9.412,9.412,0,0,0,590.882,0H575.854c-.09,0-.18,0-.27,0a.693.693,0,0,0-.717.621,2.214,2.214,0,0,0-.026.421q0,9.4,0,18.8a2.417,2.417,0,0,0,.006.269.534.534,0,0,0,.579.541q1.58.012,3.16,0a.507.507,0,0,0,.543-.489,2.4,2.4,0,0,0,.009-.346q0-2.62,0-5.24c0-.09,0-.18,0-.27-.007-.136.062-.182.188-.174.064,0,.128,0,.193,0,2.762,0,5.523,0,8.284-.005a.609.609,0,0,1,.568.287c1.145,1.611,2.3,3.212,3.46,4.816.263.365.527.728.788,1.094a.624.624,0,0,0,.5.322q1.984.01,3.969,0c.236,0,.33-.135.357-.371a.7.7,0,0,0-.207-.518M592.329,8.9a1.836,1.836,0,0,1-1.738,1.587,7.522,7.522,0,0,1-1,.065q-2.427,0-4.855,0h-5.163c-.09,0-.18,0-.27,0-.11,0-.17-.038-.168-.154,0-.077,0-.154,0-.231q0-2.755,0-5.51c0-.026,0-.051,0-.077.006-.461.068-.528.541-.529,1.272,0,2.543,0,3.814,0,2.016,0,4.033,0,6.049,0a7.977,7.977,0,0,1,1.038.056,1.837,1.837,0,0,1,1.761,1.653,8.536,8.536,0,0,1-.011,3.14" transform="translate(-465.124 -0.002)" fill="#141414"/>
    <path id="Tracé_17" data-name="Tracé 17" d="M729.434,5.826a8.572,8.572,0,0,0-.274-2.132A4.432,4.432,0,0,0,725.6.222,9.706,9.706,0,0,0,723.54,0q-7.473,0-14.946,0c-.116,0-.232,0-.346,0a.684.684,0,0,0-.678.657,4.33,4.33,0,0,0-.018.5q0,4.622,0,9.245,0,4.642,0,9.284c0,.128,0,.257,0,.385.027.4.2.579.607.584.642.007,1.284,0,1.926,0,.385,0,.771.006,1.155,0a.515.515,0,0,0,.579-.565c.005-.1,0-.206,0-.308q0-2.5,0-5.008c0-.486-.055-.431.43-.431q5.566,0,11.133,0a9.9,9.9,0,0,0,2.329-.245,4.336,4.336,0,0,0,3.259-2.865,7.393,7.393,0,0,0,.413-1.951c.094-1.154.052-2.31.044-3.465M725.08,8.621a1.956,1.956,0,0,1-1.939,1.791c-.23.02-.461.029-.692.029q-2.427,0-4.853,0h-5.315c-.09,0-.18,0-.27,0-.124,0-.194-.043-.186-.178,0-.077,0-.154,0-.231V4.756c0-.051,0-.1,0-.154.01-.441.079-.514.518-.514q2.465,0,4.93,0,2.658,0,5.315,0a4.405,4.405,0,0,1,.8.068,1.9,1.9,0,0,1,1.672,1.665,3.777,3.777,0,0,1,.082.8,14.038,14.038,0,0,1-.067,2" transform="translate(-572.506 -0.001)" fill="#141414"/>
    <path id="Tracé_18" data-name="Tracé 18" d="M530.252,121.86a5.849,5.849,0,0,0-3.461-1.422,6.124,6.124,0,0,0-4.891,1.6,4.023,4.023,0,0,0-.081,5.87,6.431,6.431,0,0,0,8.8-.091,3.9,3.9,0,0,0,1.154-2.809,4.047,4.047,0,0,0-1.524-3.151m-.288,5.834a5.319,5.319,0,0,1-1.332.9,5.769,5.769,0,0,1-6.307-.955,3.538,3.538,0,0,1-.053-5.182A5.118,5.118,0,0,1,525.9,120.9a5.6,5.6,0,0,1,4.05,1.433,3.526,3.526,0,0,1,.013,5.362" transform="translate(-421.227 -97.43)" fill="#97d246"/>
    <path id="Tracé_19" data-name="Tracé 19" d="M673.617,122.046a6.05,6.05,0,0,0-4.349-1.644,5.936,5.936,0,0,0-4.2,1.618,4.018,4.018,0,0,0,.054,6.026,5.951,5.951,0,0,0,4.188,1.554,6.815,6.815,0,0,0,1.678-.188,5.787,5.787,0,0,0,2.926-1.752,4,4,0,0,0-.3-5.614m-.327,5.463a5.262,5.262,0,0,1-3.6,1.6,5.467,5.467,0,0,1-3.728-1.062,3.8,3.8,0,0,1-1.544-2.228,3.482,3.482,0,0,1,.938-3.3,5.641,5.641,0,0,1,8.027.1,3.469,3.469,0,0,1-.09,4.893" transform="translate(-537.052 -97.422)" fill="#97d246"/>
    <path id="Tracé_20" data-name="Tracé 20" d="M45.992,3.044A3.124,3.124,0,0,0,42.79,0h-.8a3.124,3.124,0,0,0-3.2,3.04V21.337a3.574,3.574,0,0,1-3.955,3.535h-6.5V21.51a3.2,3.2,0,0,0-3.2-3.2h-.961a3.2,3.2,0,0,0-3.2,3.2v7.365a3.2,3.2,0,0,0,3.2,3.2H35.86v-.005C45.035,31.857,45.95,24.636,45.978,22h.014Z" transform="translate(-16.968 -0.003)" fill="#97d246"/>
    <path id="Tracé_21" data-name="Tracé 21" d="M7.587,8.249,0,21.937H15.175Z" transform="translate(0 -6.675)" fill="#97d246"/>
  </g>
</svg>
