<svg width="0" height="0" class="hidden">
  <symbol xmlns="http://www.w3.org/2000/svg" fill="currentColor" viewBox="0 0 10.099 18.854" id="facebook">
    <path d="M21.455,10.606l.523-3.412H18.7V4.979a1.706,1.706,0,0,1,1.923-1.843h1.489V.23A18.18,18.18,0,0,0,19.474,0c-2.7,0-4.459,1.634-4.459,4.592v2.6h-3v3.412h3v8.249H18.7V10.606Z" transform="translate(-12.018)"></path>
  </symbol>
  <symbol id="instagram" xmlns="http://www.w3.org/2000/svg" fill="currentColor" viewBox="0 0 18.581 18.581">
    <path d="M13.551,0H5.03A5.035,5.035,0,0,0,0,5.03v8.522a5.035,5.035,0,0,0,5.03,5.029h8.522a5.035,5.035,0,0,0,5.029-5.029V5.03A5.035,5.035,0,0,0,13.551,0Zm3.94,13.551a3.945,3.945,0,0,1-3.94,3.94H5.03a3.945,3.945,0,0,1-3.94-3.94V5.03a3.945,3.945,0,0,1,3.94-3.94h8.522a3.945,3.945,0,0,1,3.94,3.94Zm0,0"></path>
    <path d="M121.084,116a5.081,5.081,0,1,0,5.081,5.081A5.086,5.086,0,0,0,121.084,116Zm0,9.072a3.991,3.991,0,1,1,3.991-3.991A4,4,0,0,1,121.084,125.076Zm0,0" transform="translate(-111.794 -111.794)"></path>
    <path d="M359.478,66.285a1.5,1.5,0,1,0,1.5,1.5A1.5,1.5,0,0,0,359.478,66.285Zm0,1.913a.412.412,0,1,1,.412-.412A.412.412,0,0,1,359.478,68.2Zm0,0" transform="translate(-344.985 -63.88)"></path>
  </symbol>
  <symbol id="linkedin" xmlns="http://www.w3.org/2000/svg" fill="currentColor" viewBox="0 0 15.033 15.033">
    <path d="M18.2,17.863h0V12.349c0-2.7-.581-4.775-3.734-4.775a3.273,3.273,0,0,0-2.948,1.62h-.044V7.826H8.489V17.862H11.6v-4.97c0-1.308.248-2.574,1.868-2.574,1.6,0,1.62,1.493,1.62,2.658v4.886Z" transform="translate(-3.172 -2.83)"></path>
    <path d="M.4,7.977H3.513V18.013H.4Z" transform="translate(-0.148 -2.981)"></path>
    <path d="M1.805,0A1.814,1.814,0,1,0,3.61,1.805,1.806,1.806,0,0,0,1.805,0Z"></path>
  </symbol>
  <symbol xmlns="http://www.w3.org/2000/svg" fill="currentColor" viewBox="0 0 22.908 18.854" id="twitter">
    <path d="M22.814,111.448a9.459,9.459,0,0,1-2.317.66c.372-.062.92-.737,1.139-1.01a4.254,4.254,0,0,0,.769-1.4c.02-.04.035-.09-.005-.12a.133.133,0,0,0-.123.01,11.833,11.833,0,0,1-2.747,1.051.184.184,0,0,1-.19-.051,2.137,2.137,0,0,0-.24-.245,4.844,4.844,0,0,0-1.33-.815,4.633,4.633,0,0,0-2.041-.329,4.878,4.878,0,0,0-1.936.547,4.989,4.989,0,0,0-1.562,1.276,4.789,4.789,0,0,0-.933,1.868,5.056,5.056,0,0,0-.05,1.972c.015.11,0,.125-.095.11a14.672,14.672,0,0,1-9.438-4.8c-.11-.126-.169-.126-.26.01a4.785,4.785,0,0,0,.815,5.655c.185.175.376.351.58.51a4.812,4.812,0,0,1-1.821-.51c-.11-.07-.165-.03-.175.1a2.851,2.851,0,0,0,.03.54,4.838,4.838,0,0,0,2.983,3.858,2.815,2.815,0,0,0,.6.185,5.39,5.39,0,0,1-1.786.055c-.13-.025-.18.04-.13.165a5.024,5.024,0,0,0,3.753,3.143c.17.03.34.03.511.07-.011.015-.021.015-.03.03-.422.643-1.882,1.121-2.563,1.358a9.173,9.173,0,0,1-3.892.5c-.209-.031-.254-.028-.31,0s-.007.086.06.14c.265.175.535.331.811.481a12.826,12.826,0,0,0,2.6,1.041,13.86,13.86,0,0,0,13.454-3.146c2.758-2.74,3.724-6.518,3.724-10.3,0-.148.175-.23.279-.308a9.119,9.119,0,0,0,1.832-1.9.578.578,0,0,0,.121-.365v-.02c0-.061,0-.042-.094,0" transform="translate(0 -109.188)"></path>
  </symbol>
  <symbol xmlns="http://www.w3.org/2000/svg" fill="currentColor" viewBox="0 0 19.158 13.412" id="youtube">
    <path d="M22.677,336.875a4.2,4.2,0,0,0-4.2-4.2H7.722a4.2,4.2,0,0,0-4.2,4.2v5a4.2,4.2,0,0,0,4.2,4.2H18.473a4.2,4.2,0,0,0,4.2-4.2Zm-6.322,2.876-4.821,2.385c-.189.1-.831-.035-.831-.25v-4.9c0-.217.647-.354.837-.246l4.614,2.51c.193.11.4.39.2.5" transform="translate(-3.518 -332.671)"></path>
  </symbol>
</svg>